#N canvas 0 23 860 676 10;
#X obj 229 42 tgl 15 0 empty empty ON/OFF 17 7 0 10 -191407 -4034 -1
0 1;
#X obj 244 80 bng 15 250 50 0 empty empty empty 17 7 0 10 -228856 -258113
-1;
#N canvas 725 25 690 627 specSkewness_1024 0;
#X obj 23 57 inlet~;
#X obj 233 57 inlet;
#X obj 23 417 outlet;
#X text 19 33 Audio IN;
#X text 179 32 Trigger IN;
#X obj 373 57 inlet;
#X text 304 32 On/Off Toggle IN;
#X obj 241 429 outlet;
#X obj 243 79 r \$0-vol-onset-trig;
#X obj 258 101 r \$0-samp-repeat-trig;
#X obj 233 160 spigot 0;
#X obj 272 122 r \$0-midi-clock-trig;
#N canvas 0 23 323 105 audio-signal_L-R 0;
#X obj 11 19 r~ \$0-to-analyzer-l;
#X obj 136 19 r~ \$0-to-analyzer-r;
#X obj 11 40 outlet~;
#X obj 136 40 outlet~;
#X connect 0 0 2 0;
#X connect 1 0 3 0;
#X restore 42 85 pd audio-signal_L-R;
#X obj 23 245 specSkewness~ 2048;
#X connect 0 0 13 0;
#X connect 1 0 10 0;
#X connect 5 0 10 1;
#X connect 8 0 10 0;
#X connect 9 0 10 0;
#X connect 10 0 7 0;
#X connect 10 0 13 0;
#X connect 11 0 10 0;
#X connect 12 0 13 0;
#X connect 13 0 2 0;
#X restore 106 64 pd specSkewness_1024;
#X floatatom 195 87 5 0 0 0 - - -;
#X obj 165 106 hsl 60 8 -1 1 0 0 empty empty -2-2 -2 -8 0 10 -99865
-4034 -1 0 1;
#X obj 419 42 tgl 15 0 empty empty ON/OFF 17 7 0 10 -191407 -4034 -1
0 1;
#X obj 434 80 bng 15 250 50 0 empty empty empty 17 7 0 10 -228856 -258113
-1;
#X floatatom 385 87 5 0 0 0 - - -;
#X obj 355 106 hsl 60 8 0 1 0 0 empty empty 0-1 -2 -8 0 10 -99865 -4034
-1 0 1;
#N canvas 725 25 690 627 specBrightness_1024 0;
#X obj 23 57 inlet~;
#X obj 233 57 inlet;
#X obj 23 417 outlet;
#X text 19 33 Audio IN;
#X text 179 32 Trigger IN;
#X obj 373 57 inlet;
#X text 304 32 On/Off Toggle IN;
#X obj 241 429 outlet;
#X obj 243 79 r \$0-vol-onset-trig;
#X obj 258 101 r \$0-samp-repeat-trig;
#X obj 233 160 spigot 0;
#X obj 272 122 r \$0-midi-clock-trig;
#N canvas 0 23 323 105 audio-signal_L-R 0;
#X obj 11 19 r~ \$0-to-analyzer-l;
#X obj 136 19 r~ \$0-to-analyzer-r;
#X obj 11 40 outlet~;
#X obj 136 40 outlet~;
#X connect 0 0 2 0;
#X connect 1 0 3 0;
#X restore 42 85 pd audio-signal_L-R;
#X obj 23 245 specBrightness~ 2048 800;
#X connect 0 0 13 0;
#X connect 1 0 10 0;
#X connect 5 0 10 1;
#X connect 8 0 10 0;
#X connect 9 0 10 0;
#X connect 10 0 7 0;
#X connect 10 0 13 0;
#X connect 11 0 10 0;
#X connect 12 0 13 0;
#X connect 13 0 2 0;
#X restore 296 64 pd specBrightness_1024;
#X floatatom 216 151 5 0 0 0 - - -;
#X obj 157 215 &&, f 4;
#X floatatom 172 146 5 0 0 0 - - -;
#X obj 157 236 sel 1;
#X floatatom 313 199 5 0 0 0 - - -;
#X obj 285 248 sel 1;
#X floatatom 413 200 5 0 0 0 - - -;
#X obj 385 249 sel 1;
#X obj 185 365 print sound;
#X obj 300 430 &&;
#X floatatom 358 390 5 0 0 0 - - -;
#X obj 300 451 sel 1;
#X obj 300 361 expr if($f1>=0.9 && $f1<=1.95 \, 1 \, 0);
#X symbolatom 172 470 10 0 0 0 - - -;
#X msg 159 264 symbol KICK;
#X msg 300 472 symbol SNARE;
#X msg 285 269 symbol HH;
#X msg 385 270 symbol HH;
#X obj 41 434 sel KICK SNARE HH;
#X msg 63 454 0;
#X msg 103 455 0.5;
#X msg 130 452 1;
#X obj 164 497 hsl 128 15 0 1 0 0 empty empty empty -2 -8 0 10 -99865
-262144 -1 0 1;
#X obj 150 166 >= 0.68;
#X obj 179 191 <= 0.83;
#X obj 285 227 >= 0.36;
#X obj 385 228 >= 0.24;
#X obj 325 401 <= 0.72;
#X text 509 35 Volme Onset Trigger + MIDI Synced TRigger;
#X connect 0 0 2 2;
#X connect 2 0 3 0;
#X connect 2 0 4 0;
#X connect 2 0 22 0;
#X connect 2 0 33 0;
#X connect 2 1 1 0;
#X connect 5 0 9 2;
#X connect 9 0 7 0;
#X connect 9 0 8 0;
#X connect 9 0 34 0;
#X connect 9 0 35 0;
#X connect 9 0 36 0;
#X connect 9 0 37 0;
#X connect 9 1 6 0;
#X connect 10 0 34 1;
#X connect 11 0 13 0;
#X connect 12 0 33 1;
#X connect 13 0 24 0;
#X connect 14 0 35 1;
#X connect 15 0 26 0;
#X connect 16 0 36 1;
#X connect 17 0 27 0;
#X connect 19 0 21 0;
#X connect 20 0 37 1;
#X connect 21 0 25 0;
#X connect 22 0 19 0;
#X connect 23 0 28 0;
#X connect 24 0 18 0;
#X connect 24 0 23 0;
#X connect 25 0 18 0;
#X connect 25 0 23 0;
#X connect 26 0 18 0;
#X connect 27 0 18 0;
#X connect 27 0 23 0;
#X connect 28 0 29 0;
#X connect 28 1 30 0;
#X connect 28 2 31 0;
#X connect 29 0 32 0;
#X connect 30 0 32 0;
#X connect 31 0 32 0;
#X connect 33 0 11 0;
#X connect 34 0 11 1;
#X connect 35 0 15 0;
#X connect 36 0 17 0;
#X connect 37 0 19 1;
