#N canvas 204 23 652 992 10;
#X obj 104 180 f \$0;
#X msg 104 200 \; \$1-taps const 0 \;;
#X msg 47 183 0;
#X obj 28 626 t b f b;
#X obj 140 643 f;
#X obj 170 643 + 1;
#X obj 47 666 tabwrite \$0-taps;
#X obj 88 925 outlet;
#X obj 28 293 sel 0 1;
#X obj 68 333 timer;
#X obj 28 333 timer;
#X obj 28 243 f;
#X obj 58 243 + 1;
#X obj 58 263 mod 2;
#X obj 47 203 t f f;
#X obj 28 413 spigot;
#X msg 61 384 0;
#X obj 28 363 t b f;
#X msg 28 383 1;
#X obj 47 163 t b b b;
#X obj 28 26 inlet;
#X obj 158 788 != 0;
#X obj 269 200 table \$0-taps 7;
#X obj 61 476 pack f 0;
#X obj 61 516 -;
#X obj 61 536 abs;
#X obj 61 496 t a f;
#X text 91 515 get the difference between the last 2 taps;
#X obj 57 133 r \$0-reset;
#X obj 28 606 spigot;
#X obj 61 576 t f f;
#X obj 88 601 sel 0;
#X obj 88 622 s \$0-reset;
#X text 91 535 make absolute;
#X obj 28 433 t f f f;
#X obj 170 663 mod 7;
#X text 111 555 if the gap is big 1 \, otherwise 0;
#X obj 28 63 t b b b;
#X msg 67 83 stop;
#X text 260 58 tap tempo abstraction that averages the last 7 taps
and resets when there's a big jump or after 1.5 seconds have passed
since the last tap.;
#X obj 78 27 bng 15 250 50 0 empty empty empty 17 7 0 10 -262144 -1
-1;
#X obj 190 902 expr 60000 / $f1;
#X obj 190 928 outlet;
#X text 260 106 based on tap.tempo.pd from https://forum.pdpatchrepo.info/user/weightless
;
#X obj 47 113 del 2000;
#X obj 257 610 +;
#X obj 288 610 f;
#X msg 272 585 0;
#X obj 257 632 >= 2;
#X obj 61 556 <= 100;
#X obj 257 653 change;
#X obj 28 850 spigot;
#X text 298 631 Open Output only \, if tapping is quite nice in time
\; -);
#N canvas 1051 264 522 529 \$0-list-filter 0;
#X obj 86 33 inlet;
#X obj 275 52 inlet;
#X obj 151 352 outlet;
#X obj 169 268 outlet;
#X obj 326 250 list prepend;
#X obj 405 220 t a;
#X obj 86 58 route bang;
#X obj 86 83 b;
#X obj 151 84 t b a;
#X obj 151 124 list;
#X obj 275 111 select 0;
#X obj 326 133 b;
#X obj 326 209 list;
#X obj 169 244 t a a;
#X obj 151 317 list;
#X obj 151 155 t b a b b b;
#N canvas 0 23 717 552 \$0-list-drip 0;
#X obj 63 84 t a a;
#X obj 63 241 spigot;
#X obj 102 149 bang;
#X obj 102 168 1;
#X obj 223 149 route bang;
#X obj 183 150 bang;
#X obj 183 169 0;
#X obj 102 114 list split 2;
#X obj 232 379 list split;
#X obj 299 328 list length;
#X obj 299 350 >> 1;
#X obj 63 260 t a a a a;
#X obj 63 446 list split;
#X obj 130 398 list length;
#X obj 130 423 >> 1;
#X obj 31 19 inlet;
#X obj 290 175 outlet;
#X text 73 19 Copyright 2009 by Mathieu Bouchard;
#X obj 31 53 t b a;
#X obj 465 119 outlet;
#X text 520 121 signal end of list;
#X text 381 23 made compatible with [list-drip]: fbar 2009;
#X connect 0 0 1 0;
#X connect 0 1 7 0;
#X connect 1 0 11 0;
#X connect 2 0 3 0;
#X connect 3 0 1 1;
#X connect 4 1 16 0;
#X connect 5 0 6 0;
#X connect 6 0 1 1;
#X connect 7 0 2 0;
#X connect 7 2 4 0;
#X connect 7 2 5 0;
#X connect 8 0 0 0;
#X connect 9 0 10 0;
#X connect 10 0 8 1;
#X connect 11 0 12 0;
#X connect 11 1 13 0;
#X connect 11 2 8 0;
#X connect 11 3 9 0;
#X connect 12 1 0 0;
#X connect 13 0 14 0;
#X connect 14 0 12 1;
#X connect 15 0 18 0;
#X connect 18 0 19 0;
#X connect 18 1 0 0;
#X restore 169 215 pd \$0-list-drip;
#X connect 0 0 6 0;
#X connect 1 0 10 0;
#X connect 4 0 5 0;
#X connect 4 0 14 1;
#X connect 5 0 4 1;
#X connect 6 0 7 0;
#X connect 6 1 8 0;
#X connect 7 0 9 0;
#X connect 8 0 9 0;
#X connect 8 1 9 1;
#X connect 9 0 15 0;
#X connect 10 1 11 0;
#X connect 11 0 12 0;
#X connect 12 0 4 0;
#X connect 13 0 3 0;
#X connect 13 1 12 1;
#X connect 14 0 2 0;
#X connect 15 0 14 0;
#X connect 15 1 16 0;
#X connect 15 2 14 1;
#X connect 15 3 4 1;
#X connect 15 4 12 1;
#X connect 16 0 13 0;
#X restore 28 788 pd \$0-list-filter;
#N canvas 0 23 450 403 \$0-list-geometric-mean 0;
#X obj 42 46 inlet;
#X obj 42 314 outlet;
#X obj 61 141 route float;
#X obj 42 251 f;
#N canvas 425 298 450 300 count 0;
#X obj 133 59 b;
#X obj 133 35 inlet;
#X obj 183 35 inlet;
#X obj 164 111 + 1;
#X obj 133 133 outlet;
#X msg 183 71 1;
#X obj 133 110 f 1;
#X connect 0 0 6 0;
#X connect 1 0 0 0;
#X connect 2 0 5 0;
#X connect 3 0 6 1;
#X connect 5 0 6 1;
#X connect 6 0 3 0;
#X connect 6 0 4 0;
#X restore 137 203 pd count;
#X obj 61 166 t a b;
#X obj 42 82 t b a b b;
#X obj 137 230 pow -1;
#X obj 42 279 pow;
#N canvas 370 313 450 300 product 0;
#X obj 135 79 inlet;
#X obj 182 79 inlet;
#X obj 135 169 outlet;
#X obj 168 138 f;
#X obj 135 137 *;
#X obj 182 102 1;
#X connect 0 0 4 0;
#X connect 1 0 5 0;
#X connect 3 0 4 1;
#X connect 4 0 2 0;
#X connect 4 0 3 0;
#X connect 5 0 4 1;
#X restore 61 202 pd product;
#N canvas 0 23 694 537 \$0-list-drip 0;
#X obj 63 84 t a a;
#X obj 63 241 spigot;
#X obj 102 149 bang;
#X obj 102 168 1;
#X obj 223 149 route bang;
#X obj 183 150 bang;
#X obj 183 169 0;
#X obj 102 114 list split 2;
#X obj 232 379 list split;
#X obj 299 328 list length;
#X obj 299 350 >> 1;
#X obj 63 260 t a a a a;
#X obj 63 446 list split;
#X obj 130 398 list length;
#X obj 130 423 >> 1;
#X obj 31 19 inlet;
#X obj 290 175 outlet;
#X text 73 19 Copyright 2009 by Mathieu Bouchard;
#X obj 31 53 t b a;
#X obj 465 119 outlet;
#X text 520 121 signal end of list;
#X text 381 23 made compatible with [list-drip]: fbar 2009;
#X connect 0 0 1 0;
#X connect 0 1 7 0;
#X connect 1 0 11 0;
#X connect 2 0 3 0;
#X connect 3 0 1 1;
#X connect 4 1 16 0;
#X connect 5 0 6 0;
#X connect 6 0 1 1;
#X connect 7 0 2 0;
#X connect 7 2 4 0;
#X connect 7 2 5 0;
#X connect 8 0 0 0;
#X connect 9 0 10 0;
#X connect 10 0 8 1;
#X connect 11 0 12 0;
#X connect 11 1 13 0;
#X connect 11 2 8 0;
#X connect 11 3 9 0;
#X connect 12 1 0 0;
#X connect 13 0 14 0;
#X connect 14 0 12 1;
#X connect 15 0 18 0;
#X connect 18 0 19 0;
#X connect 18 1 0 0;
#X restore 61 115 pd \$0-list-drip;
#X connect 0 0 6 0;
#X connect 2 0 5 0;
#X connect 3 0 8 0;
#X connect 4 0 7 0;
#X connect 5 0 9 0;
#X connect 5 1 4 0;
#X connect 6 0 3 0;
#X connect 6 1 10 0;
#X connect 6 2 9 1;
#X connect 6 3 4 1;
#X connect 7 0 8 1;
#X connect 8 0 1 0;
#X connect 9 0 3 1;
#X connect 10 0 2 0;
#X restore 28 812 pd \$0-list-geometric-mean;
#X obj 27 903 bang;
#X obj 27 924 outlet;
#X text 83 949 Milliseconds;
#X text 23 947 BANG;
#X text 189 951 BPM;
#X text 262 142 ported and edited as pd vanilla abstractio by tobias
hartmann 2020;
#X msg 47 740 set \$1;
#N canvas 0 23 450 230 \$0-u_tabdump 0;
#X obj 36 41 inlet;
#X obj 36 106 symbol;
#N canvas 172 83 586 377 LICENSE-GPL 0;
#X text 57 88 This program is free software: you can redistribute it
and/or modify it under the terms of the GNU General Public License
as published by the Free Software Foundation \, either version 3 of
the License \, or (at your option) any later version.;
#X text 58 168 This program is distributed in the hope that it will
be useful \, but WITHOUT ANY WARRANTY \; without even the implied warranty
of MERCHANTABILITY or FITNESS FOR A PARTICULAR PURPOSE. See the GNU
General Public License for more details.;
#X text 57 261 You should have received a copy of the GNU General Public
License along with this program. If not \, see <http://www.gnu.org/licenses/>.
;
#X text 60 325 See the file LICENSE.txt for the full license text.
;
#X text 56 54 Copyright (C) 2013 \, Dan Wilcox <danomatika@gmail.com>
;
#X restore 259 101 pd LICENSE-GPL;
#X obj 76 173 outlet;
#X text 230 41 based on : zexy [tabdump];
#X obj 36 69 route set bang;
#N canvas 177 160 229 196 arg1 0;
#X obj 109 139 outlet;
#X obj 34 21 loadbang;
#X obj 34 49 t b b;
#X obj 34 75 symbol \$1;
#X obj 109 74 symbol;
#X obj 34 103 select symbol;
#X connect 1 0 2 0;
#X connect 2 0 3 0;
#X connect 2 1 4 0;
#X connect 3 0 5 0;
#X connect 4 0 5 1;
#X connect 5 1 0 0;
#X restore 127 107 pd arg1;
#X obj 76 145 array get;
#X connect 0 0 5 0;
#X connect 1 0 7 2;
#X connect 5 0 1 0;
#X connect 5 1 7 0;
#X connect 6 0 7 2;
#X connect 7 0 3 0;
#X restore 28 766 pd \$0-u_tabdump;
#X obj 47 719 symbol \$0-taps;
#X obj 47 698 loadbang;
#N canvas 453 59 453 454 \$0-once 0;
#X obj 34 59 inlet;
#X obj 91 103 t a b;
#X obj 136 137 f 1;
#X obj 91 201 t a b;
#X obj 91 244 outlet;
#X obj 207 56 inlet;
#X text 8 6 once;
#X text 64 7 only the first message passes through;
#X text 29 37 message in;
#X text 29 289 message out (only once);
#X text 203 36 anything to init once;
#X obj 34 80 route bang;
#X obj 34 110 t b b;
#X obj 34 202 t b b;
#X text 88 383 IEM KUG;
#X text 66 364 musil;
#X text 110 363 @;
#X text 122 364 iem.at;
#X text 71 393 Graz \, Austria;
#X text 102 336 @;
#X text 121 335 iem.at;
#X text 23 335 (c) zmoelnig;
#X obj 207 79 t b;
#X msg 207 102 1;
#X msg 151 235 0;
#X obj 91 174 spigot 1;
#X obj 34 170 spigot 1;
#X text 23 352 (c) Thomas Musil 2000 - 2018;
#X connect 0 0 11 0;
#X connect 1 0 25 0;
#X connect 1 1 2 0;
#X connect 2 0 25 1;
#X connect 2 0 26 1;
#X connect 3 0 4 0;
#X connect 3 1 24 0;
#X connect 5 0 22 0;
#X connect 11 0 12 0;
#X connect 11 1 1 0;
#X connect 12 0 26 0;
#X connect 12 1 2 0;
#X connect 13 0 4 0;
#X connect 13 1 24 0;
#X connect 22 0 23 0;
#X connect 23 0 2 1;
#X connect 24 0 2 1;
#X connect 25 0 3 0;
#X connect 26 0 13 0;
#X restore 67 454 pd \$0-once;
#X obj 269 229 loadbang;
#X obj 269 250 \$0;
#X floatatom 269 271 5 0 0 0 - - -;
#X text 307 271 Subpatch \$0;
#X connect 0 0 1 0;
#X connect 2 0 14 0;
#X connect 3 0 62 0;
#X connect 3 1 6 0;
#X connect 3 2 4 0;
#X connect 4 0 6 1;
#X connect 4 0 5 0;
#X connect 5 0 35 0;
#X connect 8 0 9 0;
#X connect 8 0 10 1;
#X connect 8 1 9 1;
#X connect 8 1 10 0;
#X connect 9 0 17 0;
#X connect 10 0 17 0;
#X connect 11 0 12 0;
#X connect 11 0 8 0;
#X connect 12 0 13 0;
#X connect 13 0 11 1;
#X connect 14 0 11 1;
#X connect 14 1 4 1;
#X connect 15 0 34 0;
#X connect 16 0 15 1;
#X connect 16 0 65 1;
#X connect 17 0 18 0;
#X connect 17 1 15 0;
#X connect 18 0 15 1;
#X connect 19 0 2 0;
#X connect 19 1 16 0;
#X connect 19 2 0 0;
#X connect 20 0 37 0;
#X connect 21 0 53 1;
#X connect 23 0 26 0;
#X connect 24 0 25 0;
#X connect 25 0 49 0;
#X connect 26 0 24 0;
#X connect 26 1 23 1;
#X connect 28 0 19 0;
#X connect 29 0 3 0;
#X connect 30 0 29 1;
#X connect 30 1 31 0;
#X connect 31 0 32 0;
#X connect 31 0 47 0;
#X connect 31 1 45 0;
#X connect 34 0 29 0;
#X connect 34 1 23 0;
#X connect 34 2 65 0;
#X connect 35 0 4 1;
#X connect 37 0 11 0;
#X connect 37 1 44 0;
#X connect 37 2 38 0;
#X connect 38 0 44 0;
#X connect 40 0 37 0;
#X connect 41 0 42 0;
#X connect 44 0 19 0;
#X connect 45 0 46 0;
#X connect 45 0 48 0;
#X connect 46 0 45 1;
#X connect 47 0 45 1;
#X connect 48 0 50 0;
#X connect 49 0 30 0;
#X connect 50 0 51 1;
#X connect 51 0 7 0;
#X connect 51 0 41 0;
#X connect 51 0 55 0;
#X connect 53 0 54 0;
#X connect 53 1 21 0;
#X connect 54 0 51 0;
#X connect 55 0 56 0;
#X connect 61 0 62 0;
#X connect 62 0 53 0;
#X connect 63 0 61 0;
#X connect 64 0 63 0;
#X connect 65 0 23 1;
#X connect 66 0 67 0;
#X connect 67 0 68 0;
