#N canvas 269 23 1488 1005 10;
#X declare -lib timbreID/timbreIDLib;
#X obj 748 14 declare -lib timbreID/timbreIDLib;
#X obj 688 14 loadbang;
#X msg 688 77 \; pd dsp \$1 \;;
#X msg 688 35 1;
#X obj 688 56 tgl 15 0 empty empty empty 17 7 0 10 -262144 -1 -1 1
1;
#X obj 389 344 bng 15 250 50 0 empty empty empty 17 7 0 10 -4034 -1
-1;
#X text 412 346 Manual Trigger FE;
#X obj 269 868 s \$0-feature-list-training;
#X obj 196 951 s \$0-feature-list-analyze;
#X obj 269 846 spigot 0;
#X obj 196 929 spigot 0;
#X obj 314 822 tgl 15 0 empty empty empty 17 7 0 10 -204786 -1 -1 0
1;
#X text 334 820 Send list for training;
#X obj 241 903 tgl 15 0 empty empty empty 17 7 0 10 -204786 -1 -1 0
1;
#X text 263 902 Send list for analysis;
#N canvas 449 53 856 810 audio-input 0;
#X obj 29 199 adc~ 1 2;
#X obj 269 189 bng 15 250 50 0 empty empty empty 17 7 0 10 -262144
-1 -1;
#X obj 269 210 openpanel;
#X msg 269 231 set open \$1;
#X msg 269 332 open /Users/t.hartmann/Music/Samples/drum breaks/TS-ClassicBreaksVol2/cameo-rigormortis-111.5bpm.wav
;
#X msg 380 288 1;
#X msg 410 288 0;
#X obj 340 264 t b b;
#X obj 29 550 outlet~;
#X obj 89 550 outlet~;
#X obj 269 359 readsf~ 2;
#X obj 269 416 expr~ $v1 * $v3 \; $v2 * $v3;
#X obj 362 392 vline~;
#X obj 365 369 hsl 60 15 0 1 0 0 empty empty Volume_0-1 -2 -8 0 10
-228856 -1 -1 0 1;
#X obj 29 416 expr~ $v1 * $v3 \; $v2 * $v3;
#X obj 122 392 vline~;
#X obj 125 369 hsl 60 15 0 1 0 0 empty empty Volume_0-1 -2 -8 0 10
-228856 -1 -1 3100 1;
#X text 31 167 Audio Input;
#X text 269 161 Soundfile Playback;
#X obj 518 535 expr~ $v1 * $v3 \; $v2 * $v3;
#X obj 611 511 vline~;
#X obj 614 488 hsl 60 15 0 1 0 0 empty empty Volume_0-1 -2 -8 0 10
-228856 -1 -1 0 1;
#X obj 46 771 dac~ 1 2;
#X obj 46 726 catch~ \$0-main-out-l;
#X obj 91 749 catch~ \$0-main-out-r;
#X obj 518 592 throw~ \$0-main-out-l;
#X obj 611 570 throw~ \$0-main-out-r;
#X text 44 700 MAIN AUDIO OUTPUT;
#X text 601 443 To audio Output;
#X obj 122 44 inlet;
#X obj 163 44 inlet;
#X obj 203 44 inlet;
#X obj 373 44 inlet;
#X obj 253 44 inlet;
#X obj 253 65 route 0 1;
#X obj 179 569 env~;
#X obj 179 590 - 100;
#X obj 179 611 s \$0-input-volume-meter-l;
#X obj 229 549 env~;
#X obj 229 570 - 100;
#X obj 229 590 s \$0-input-volume-meter-r;
#X text 276 567 To VU Meters;
#X connect 0 0 14 0;
#X connect 0 1 14 1;
#X connect 1 0 2 0;
#X connect 2 0 3 0;
#X connect 3 0 4 0;
#X connect 4 0 10 0;
#X connect 5 0 10 0;
#X connect 6 0 10 0;
#X connect 7 0 5 0;
#X connect 7 1 4 0;
#X connect 10 0 11 0;
#X connect 10 1 11 1;
#X connect 10 2 7 0;
#X connect 11 0 8 0;
#X connect 11 0 19 0;
#X connect 11 0 35 0;
#X connect 11 1 9 0;
#X connect 11 1 19 1;
#X connect 11 1 38 0;
#X connect 12 0 11 2;
#X connect 13 0 12 0;
#X connect 14 0 8 0;
#X connect 14 0 19 0;
#X connect 14 0 35 0;
#X connect 14 1 9 0;
#X connect 14 1 19 1;
#X connect 14 1 38 0;
#X connect 15 0 14 2;
#X connect 16 0 15 0;
#X connect 19 0 25 0;
#X connect 19 1 26 0;
#X connect 20 0 19 2;
#X connect 21 0 20 0;
#X connect 23 0 22 0;
#X connect 24 0 22 1;
#X connect 29 0 16 0;
#X connect 30 0 13 0;
#X connect 31 0 1 0;
#X connect 32 0 21 0;
#X connect 33 0 34 0;
#X connect 34 0 6 0;
#X connect 34 1 7 0;
#X connect 35 0 36 0;
#X connect 36 0 37 0;
#X connect 38 0 39 0;
#X connect 39 0 40 0;
#X restore 66 157 pd audio-input;
#X obj 66 74 vsl 15 60 0 1 0 0 empty empty empty 0 -9 0 10 -228856
-1 -1 3100 1;
#X obj 86 74 vsl 15 60 0 1 0 0 empty empty empty 0 -9 0 10 -228856
-1 -1 0 1;
#X obj 106 73 vsl 15 60 0 1 0 0 empty empty empty 0 -9 0 10 -261234
-1 -1 0 1;
#X obj 136 72 bng 15 250 50 0 empty empty empty 17 7 0 10 -262144 -1
-1;
#X obj 137 93 tgl 15 0 empty empty empty 17 7 0 10 -262144 -1 -1 0
1;
#X text 157 69 Load Soundfile;
#X text 155 94 Play Loop / stop;
#X text 62 20 Audio In;
#X text 77 34 Audio Player;
#X text 94 49 Audio OUT;
#X obj 277 73 vu 15 80 \$0-input-volume-meter-l empty -1 -8 0 10 -66577
-1 0 0;
#X obj 307 73 vu 15 80 \$0-input-volume-meter-r empty -1 -8 0 10 -66577
-1 0 0;
#X text 274 51 Audio IN;
#N canvas 204 288 725 528 to_lern_about 0;
#N canvas 713 346 570 417 onsets 0;
#X obj 56 53 inlet~;
#X obj 176 347 outlet;
#X obj 3 4 cnv 10 400 10 empty empty empty 20 12 0 14 -233017 -66577
0;
#X obj 3 4 cnv 10 10 400 empty empty empty 20 12 0 14 -233017 -66577
0;
#X obj 208 193 bng 15 250 50 0 empty empty empty 17 7 0 10 -262144
-1 -1;
#X obj 259 96 loadbang;
#X obj 56 335 outlet~;
#X obj 176 155 bark~ 4096 1024 0.5;
#X msg 259 119 minvel 50 \, debounce 200 \, thresh -1 20;
#X connect 0 0 6 0;
#X connect 0 0 7 0;
#X connect 5 0 8 0;
#X connect 7 0 4 0;
#X connect 7 0 1 0;
#X connect 8 0 7 0;
#X restore 66 309 pd onsets;
#X obj 66 342 attackTime~ 4096;
#X text 139 307 Audio Onset Detection (amplitude peak);
#X obj 118 80 zeroCrossing~ 2048;
#X text 241 82 Ermittelt Noisiness;
#X obj 118 105 specBrightness~ 1024 1200;
#X text 279 104 Ermittelt Noisiness;
#X text 329 115 Creation arguments are window size in samples \, and
a boundary frequency to determine the ratio of high spectral content.
, f 47;
#X obj 119 128 barkSpecBrightness~ 2048;
#X obj 121 208 cepstrum~ 2048;
#X obj 121 230 bfcc~ 2048 0.25;
#X obj 120 185 attackTime~ 4096;
#X text 127 36 To learn about:;
#X obj 118 439 r \$0-feature-list-training;
#X obj 138 460 r \$0-feature-list-analyze;
#X connect 0 0 1 0;
#X connect 0 1 1 0;
#X restore 688 117 pd to_lern_about;
#N canvas 0 50 450 300 (subpatch) 0;
#X array \$0-sampleBuffer-graph 1024 float 0;
#X coords 0 1 1023 -1 100 70 1 0 0;
#X restore 273 181 graph;
#X obj 250 255 s~ \$0-to-show-buffer;
#N canvas 0 23 576 351 single_feature 0;
#X obj 23 37 inlet~;
#X obj 113 37 inlet;
#X obj 23 297 outlet;
#X obj 23 125 bfcc~ 1024;
#X text 19 13 Audio IN;
#X text 109 12 Trigger IN;
#X text 72 300 Feature List/Value OUT;
#X obj 181 205 list split 5;
#X obj 181 226 list split 1;
#X text 265 202 Spit out only 5 first items of list;
#X text 263 225 Truncate first item of list;
#X msg 215 250 list out;
#X msg 181 174 list in;
#X text 183 144 Use this to truncate the list;
#X connect 0 0 3 0;
#X connect 1 0 3 0;
#X connect 3 0 2 0;
#X connect 7 0 8 0;
#X connect 8 1 11 0;
#X connect 12 0 7 0;
#X restore 69 633 pd single_feature;
#X obj 168 608 spigot 0;
#X obj 213 587 tgl 15 0 empty empty empty 17 7 0 10 -4034 -1 -1 0 1
;
#X obj 386 608 spigot 0;
#X obj 431 587 tgl 15 0 empty empty empty 17 7 0 10 -4034 -1 -1 0 1
;
#N canvas 145 274 569 494 feature-list-builder 0;
#X obj 187 194 list prepend;
#X obj 220 220 t l;
#X obj 187 354 spigot 0;
#X obj 187 375 t l b;
#X msg 254 327 1, f 1;
#X msg 274 327 0, f 1;
#X obj 54 208 f;
#X obj 54 296 mod;
#X obj 93 208 + 1;
#X obj 54 330 select;
#X obj 87 307 - 1;
#X msg 69 178 0, f 2;
#X obj 27 130 t l b;
#X obj 27 33 inlet;
#X obj 187 462 outlet;
#X obj 232 114 bang;
#X obj 122 35 inlet;
#X obj 234 38 inlet;
#X obj 124 253 loadbang;
#X msg 124 274 1;
#X connect 0 0 1 0;
#X connect 0 0 2 0;
#X connect 1 0 0 1;
#X connect 2 0 3 0;
#X connect 3 0 14 0;
#X connect 3 1 5 0;
#X connect 3 1 0 1;
#X connect 4 0 2 1;
#X connect 5 0 2 1;
#X connect 6 0 7 0;
#X connect 6 0 8 0;
#X connect 7 0 9 0;
#X connect 8 0 6 1;
#X connect 9 0 11 0;
#X connect 9 0 4 0;
#X connect 10 0 9 1;
#X connect 11 0 6 1;
#X connect 12 0 0 0;
#X connect 12 1 6 0;
#X connect 13 0 12 0;
#X connect 15 0 0 1;
#X connect 15 0 11 0;
#X connect 16 0 10 0;
#X connect 16 0 7 1;
#X connect 16 0 11 0;
#X connect 17 0 15 0;
#X connect 18 0 19 0;
#X connect 19 0 10 0;
#X connect 19 0 7 1;
#X restore 269 764 pd feature-list-builder;
#X floatatom 336 741 5 1 20 0 How_many - -;
#X obj 404 742 bng 15 250 50 0 empty empty Manual_Reset 17 7 0 10 -191407
-1 -1;
#X obj 974 728 timbreID;
#X obj 974 670 r \$0-feature-list-training;
#X obj 996 696 r \$0-feature-list-analyze;
#X floatatom 974 793 10 0 0 0 timbreID - -;
#X msg 1045 416 uncluster;
#X text 1114 415 Go back to reporting raw instance indexes.;
#X msg 1077 460 clear;
#X text 1117 459 Wipe all instances to start over.;
#X msg 1030 396 cluster 12;
#X text 1029 351 Perform hierarchical clustering to find a given number
of clusters (e.g. \, instruments). See arcane_parameters subpatch above
for manual clustering.;
#X msg 973 294 write ./data/feature-db.timid;
#X msg 1009 319 read ./data/feature-db.timid;
#X msg 1110 396 cluster 4;
#N canvas 743 506 702 345 show-buffer 0;
#N canvas 205 170 462 302 do-plotting 0;
#X obj 79 37 inlet;
#X obj 79 203 list prepend 0;
#X obj 203 116 list length;
#X obj 203 138 change;
#X obj 203 160 pack f \$0;
#X obj 79 59 t l l;
#X obj 79 224 s \$0-sampleBuffer-graph;
#X msg 203 181 \; \$2-sampleBuffer-graph resize \$1 \;;
#X connect 0 0 5 0;
#X connect 1 0 6 0;
#X connect 2 0 3 0;
#X connect 3 0 4 0;
#X connect 4 0 7 0;
#X connect 5 0 1 0;
#X connect 5 1 2 0;
#X restore 22 281 pd do-plotting;
#X obj 22 257 sampleBuffer~ 1024;
#X msg 452 194 window 2048;
#X text 43 49 SHOW BUFFER;
#X obj 22 22 r~ \$0-to-show-buffer;
#X obj 22 83 clip~ -1 1;
#X obj 156 151 bng 15 250 50 0 empty empty empty 17 7 0 10 -228856
-1 -1;
#X obj 202 127 metro 100;
#X obj 156 172 spigot 1;
#X obj 156 79 r \$0-show-buff-now;
#X obj 306 21 inlet;
#X obj 306 42 clip 0 1;
#X obj 366 21 inlet;
#X obj 366 42 clip 0 1;
#X connect 1 0 0 0;
#X connect 2 0 1 0;
#X connect 4 0 5 0;
#X connect 5 0 1 0;
#X connect 6 0 8 0;
#X connect 7 0 6 0;
#X connect 8 0 1 0;
#X connect 9 0 6 0;
#X connect 10 0 11 0;
#X connect 11 0 8 1;
#X connect 12 0 13 0;
#X connect 13 0 7 0;
#X restore 379 234 pd show-buffer;
#X obj 981 496 s \$0-feature-list-training;
#X obj 106 919 spigot 0;
#X obj 151 893 tgl 15 0 empty empty empty 17 7 0 10 -204786 -1 -1 0
1;
#X obj 106 950 print;
#N canvas 849 196 757 467 multiple_features 0;
#X obj 19 45 inlet~;
#X text 18 19 Audio IN;
#X obj 19 367 list append;
#X obj 82 329 list append;
#X obj 159 45 inlet;
#X obj 159 69 t b b b b b b;
#X obj 19 405 outlet;
#X obj 250 173 specBrightness~ 1024 1200;
#X obj 137 172 bfcc~ 2048 0.25;
#X obj 20 171 attackTime~ 4096;
#X obj 419 274 list split 5;
#X obj 419 295 list split 1;
#X text 503 271 Spit out only 5 first items of list;
#X text 501 294 Truncate first item of list;
#X msg 453 319 list out;
#X msg 419 243 list in;
#X text 421 213 Use this to truncate the list;
#X connect 0 0 7 0;
#X connect 0 0 8 0;
#X connect 0 0 9 0;
#X connect 2 0 6 0;
#X connect 3 0 2 1;
#X connect 4 0 5 0;
#X connect 5 0 9 0;
#X connect 5 1 8 0;
#X connect 5 2 7 0;
#X connect 7 0 3 1;
#X connect 8 0 3 0;
#X connect 9 0 2 0;
#X connect 10 0 11 0;
#X connect 11 1 14 0;
#X connect 15 0 10 0;
#X restore 269 633 pd multiple_features;
#X obj 781 65 samplerate~;
#X obj 781 42 r pd-dsp-started;
#X floatatom 781 86 8 0 0 0 - - -;
#X obj 558 467 tgl 15 0 empty empty empty 17 7 0 10 -228856 -1 -1 0
1;
#X obj 540 468 bng 15 250 50 0 empty empty empty 17 7 0 10 -228856
-1 -1;
#X floatatom 472 367 5 1 20 1 How_often - -;
#X msg 724 403 22400;
#X floatatom 558 420 8 1 89600 1 Speed_in_samples - -;
#N canvas 0 23 450 300 delay_test 0;
#X obj 194 45 inlet;
#X obj 194 66 t b b b b b;
#X obj 439 19 inlet;
#X obj 439 47 unpack f f f f f;
#X obj 194 126 delay 1 1 samp;
#X obj 294 126 delay 1 1 samp;
#X obj 394 126 delay 1 1 samp;
#X obj 494 126 delay 1 1 samp;
#X obj 604 126 delay 1 1 samp;
#X msg 640 47 set \$1 \$2 \$3 \$4 \$5;
#X msg 640 68;
#X text 758 47 Just Show sent in Values;
#X connect 0 0 1 0;
#X connect 1 0 4 0;
#X connect 1 1 5 0;
#X connect 1 2 6 0;
#X connect 1 3 7 0;
#X connect 1 4 8 0;
#X connect 2 0 3 0;
#X connect 2 0 9 0;
#X connect 3 0 4 1;
#X connect 3 1 5 1;
#X connect 3 2 6 1;
#X connect 3 3 7 1;
#X connect 3 4 8 1;
#X connect 9 0 10 0;
#X restore 983 132 pd delay_test;
#N canvas 893 246 740 568 sample-accurate-repetition 0;
#X obj 201 30 inlet;
#X obj 31 431 outlet;
#X obj 231 279 f;
#X obj 261 279 + 1;
#X obj 231 325 mod;
#X obj 246 353 - 1;
#X obj 231 376 sel;
#X msg 304 250 0, f 1;
#X msg 162 193 0, f 1;
#X msg 201 188 1, f 1;
#X obj 482 31 inlet;
#X obj 482 171 t b f;
#X obj 199 429 outlet;
#X text 243 29 bang to start;
#X text 528 31 How Many;
#X obj 622 27 inlet;
#X obj 201 223 metro 22400 1 samp;
#X obj 111 159 spigot;
#X obj 201 159 spigot;
#X obj 223 84 sel 1;
#X obj 250 106 bang;
#X msg 221 133 0, f 1;
#X msg 241 133 1, f 1;
#X msg 170 134 1, f 1;
#X msg 150 134 0, f 1;
#X text 250 158 Bypass metro if only 1 iteration;
#X obj 75 453 s \$0-show-buff-now;
#X connect 0 0 17 0;
#X connect 0 0 18 0;
#X connect 2 0 3 0;
#X connect 2 0 4 0;
#X connect 3 0 2 1;
#X connect 4 0 6 0;
#X connect 5 0 6 1;
#X connect 6 0 7 0;
#X connect 6 0 8 0;
#X connect 7 0 2 1;
#X connect 8 0 12 0;
#X connect 8 0 16 0;
#X connect 9 0 12 0;
#X connect 9 0 16 0;
#X connect 10 0 11 0;
#X connect 10 0 19 0;
#X connect 11 0 7 0;
#X connect 11 1 5 0;
#X connect 11 1 4 1;
#X connect 15 0 16 1;
#X connect 16 0 2 0;
#X connect 16 0 1 0;
#X connect 16 0 26 0;
#X connect 17 0 1 0;
#X connect 17 0 26 0;
#X connect 18 0 9 0;
#X connect 19 0 23 0;
#X connect 19 0 21 0;
#X connect 19 1 20 0;
#X connect 20 0 22 0;
#X connect 20 0 24 0;
#X connect 21 0 18 1;
#X connect 22 0 18 1;
#X connect 23 0 17 1;
#X connect 24 0 17 1;
#X restore 387 444 pd sample-accurate-repetition;
#X text 576 468 Running;
#X msg 688 403 1024;
#N canvas 669 135 701 542 onset-trigger 0;
#X obj 56 23 inlet~;
#X obj 118 475 outlet;
#X obj 92 164 bng 15 250 50 0 empty empty empty 17 7 0 10 -262144 -1
-1;
#X obj 128 78 loadbang;
#X obj 56 475 outlet~;
#X obj 116 128 bark~ 4096 1024 0.5;
#X msg 128 101 minvel 50 \, debounce 200 \, thresh -1 20;
#X obj 271 303 f;
#X obj 301 303 + 1;
#X obj 271 349 mod;
#X obj 286 377 - 1;
#X obj 271 400 sel;
#X msg 347 282 0, f 1;
#X obj 418 28 inlet;
#X text 461 25 How often;
#X obj 118 270 spigot;
#X obj 226 270 spigot;
#X msg 246 244 0, f 1;
#X msg 266 244 1, f 1;
#X msg 177 245 1, f 1;
#X msg 157 245 0, f 1;
#X obj 457 102 sel 0;
#X obj 484 134 t f b;
#X obj 418 53 moses 0;
#X obj 457 79 change;
#X obj 225 185 spigot 0;
#X msg 292 157 0, f 2;
#X msg 270 140 1, f 2;
#X obj 570 23 inlet;
#X text 614 23 do it;
#X obj 180 497 s \$0-show-buff-now;
#X connect 0 0 4 0;
#X connect 0 0 5 0;
#X connect 3 0 6 0;
#X connect 5 0 2 0;
#X connect 5 0 15 0;
#X connect 5 0 25 0;
#X connect 6 0 5 0;
#X connect 7 0 8 0;
#X connect 7 0 9 0;
#X connect 8 0 7 1;
#X connect 9 0 11 0;
#X connect 10 0 11 1;
#X connect 11 0 12 0;
#X connect 11 0 26 0;
#X connect 12 0 7 1;
#X connect 13 0 23 0;
#X connect 15 0 1 0;
#X connect 15 0 30 0;
#X connect 16 0 7 0;
#X connect 16 0 1 0;
#X connect 16 0 30 0;
#X connect 17 0 16 1;
#X connect 18 0 16 1;
#X connect 19 0 15 1;
#X connect 20 0 15 1;
#X connect 21 0 19 0;
#X connect 21 0 17 0;
#X connect 21 1 22 0;
#X connect 22 0 10 0;
#X connect 22 0 9 1;
#X connect 22 1 18 0;
#X connect 22 1 20 0;
#X connect 22 1 12 0;
#X connect 23 1 24 0;
#X connect 24 0 21 0;
#X connect 25 0 16 0;
#X connect 26 0 25 1;
#X connect 27 0 25 1;
#X connect 28 0 27 0;
#X restore 70 441 pd onset-trigger;
#X floatatom 116 364 5 0 20 1 How_often - -;
#X obj 163 416 bng 15 250 50 0 empty empty DO_IT 17 7 0 10 -4034 -1
-1;
#X obj 197 494 bng 15 250 50 0 empty empty empty 17 7 0 10 -262144
-1 -1;
#X obj 336 710 r \$0-to-list-builder;
#X obj 125 389 s \$0-to-list-builder;
#X obj 483 391 s \$0-to-list-builder;
#X obj 389 208 tgl 15 0 empty empty Auto_Show_Buff_On/Off 17 7 0 10
-204786 -1 -1 0 1;
#X obj 379 188 tgl 15 0 empty empty Show_Buff_On/Off 17 7 0 10 -204786
-1 -1 1 1;
#X text 114 339 0 is continuouse;
#X connect 1 0 3 0;
#X connect 3 0 4 0;
#X connect 4 0 2 0;
#X connect 5 0 68 0;
#X connect 9 0 7 0;
#X connect 10 0 8 0;
#X connect 11 0 9 1;
#X connect 13 0 10 1;
#X connect 15 0 31 0;
#X connect 15 0 71 0;
#X connect 15 1 31 0;
#X connect 16 0 15 0;
#X connect 17 0 15 1;
#X connect 18 0 15 4;
#X connect 19 0 15 2;
#X connect 20 0 15 3;
#X connect 32 0 37 0;
#X connect 33 0 32 1;
#X connect 34 0 33 1;
#X connect 35 0 58 1;
#X connect 36 0 35 1;
#X connect 37 0 9 0;
#X connect 37 0 10 0;
#X connect 37 0 55 0;
#X connect 38 0 37 1;
#X connect 39 0 37 2;
#X connect 40 0 43 0;
#X connect 41 0 40 0;
#X connect 42 0 40 1;
#X connect 44 0 54 0;
#X connect 46 0 54 0;
#X connect 48 0 54 0;
#X connect 50 0 54 0;
#X connect 51 0 54 0;
#X connect 52 0 54 0;
#X connect 55 0 57 0;
#X connect 56 0 55 1;
#X connect 58 0 37 0;
#X connect 59 0 61 0;
#X connect 60 0 59 0;
#X connect 64 0 68 1;
#X connect 64 0 77 0;
#X connect 65 0 66 0;
#X connect 66 0 68 2;
#X connect 68 0 63 0;
#X connect 68 0 33 0;
#X connect 68 0 35 0;
#X connect 68 1 62 0;
#X connect 70 0 66 0;
#X connect 71 0 32 0;
#X connect 71 0 58 0;
#X connect 71 1 33 0;
#X connect 71 1 35 0;
#X connect 71 1 74 0;
#X connect 72 0 71 1;
#X connect 72 0 76 0;
#X connect 73 0 71 2;
#X connect 75 0 38 0;
#X connect 78 0 53 1;
#X connect 79 0 53 0;
