#N canvas 339 23 1136 999 10;
#X declare -lib timbreID/timbreIDLib;
#X declare -lib timbreID/timbreIDLib;
#X obj 528 54 declare -lib timbreID/timbreIDLib;
#X obj 528 92 loadbang;
#X msg 528 155 \; pd dsp \$1 \;;
#X msg 528 113 1;
#X obj 528 134 tgl 15 0 empty empty empty 17 7 0 10 -191407 -4034 -1
1 1;
#N canvas 261 162 1197 849 audio-input 0;
#X obj 29 239 adc~ 1 2;
#X obj 269 210 openpanel;
#X msg 269 231 set open \$1;
#X msg 269 332 open amenbreak.wav;
#X msg 380 288 1;
#X msg 410 288 0;
#X obj 365 252 t b b;
#X obj 269 381 readsf~ 2;
#X obj 269 416 expr~ $v1 * $v3 \; $v2 * $v3;
#X obj 362 392 vline~;
#X obj 29 416 expr~ $v1 * $v3 \; $v2 * $v3;
#X obj 122 392 vline~;
#X text 27 217 Audio Input;
#X text 258 169 Soundfile Playback;
#X obj 380 583 expr~ $v1 * $v3 \; $v2 * $v3;
#X obj 473 559 vline~;
#X obj 385 772 dac~ 1 2;
#X obj 473 618 throw~ \$0-main-out-r;
#X text 383 701 MAIN AUDIO OUTPUT;
#X obj 410 221 route 0 1;
#X obj 652 513 env~;
#X obj 652 534 - 100;
#X obj 652 555 s \$0-input-volume-meter-l;
#X obj 702 493 env~;
#X obj 702 514 - 100;
#X obj 702 534 s \$0-input-volume-meter-r;
#X text 693 574 To VU Meters;
#X obj 10 10 cnv 15 280 140 empty empty AUDIO_INPUT/SOUNDFILE_PLAYER
5 10 0 12 -228856 -66577 0;
#X obj 17 79 bng 15 250 50 0 empty empty empty 17 7 0 10 -191407 -204786
-1;
#X obj 17 98 tgl 15 0 empty empty empty 17 7 0 10 -191407 -4034 -1
0 1;
#X obj 246 46 vu 15 80 \$0-input-volume-meter-l empty -1 -8 0 10 -66577
-1 0 0;
#X obj 266 46 vu 15 80 \$0-input-volume-meter-r empty -1 -8 0 10 -66577
-1 0 0;
#X obj 19 35 hsl 80 15 0 1 0 1 empty empty empty -2 -8 0 10 -191407
-1 -1 0 1;
#X obj 19 54 hsl 80 15 0 1 0 1 empty empty empty -2 -8 0 10 -191407
-1 -1 2300 1;
#X text 106 54 Audio Player Volume;
#X text 39 79 Load Soundfile (.wav);
#X text 40 99 Play Loop | Stop;
#X obj 20 126 hsl 80 15 0 1 0 1 empty empty empty -2 -8 0 10 -99865
-228856 -1 4100 1;
#X text 248 129 L;
#X text 268 129 R;
#X text 243 27 In Vol;
#X text 106 34 Mic/Line In Volume;
#X obj 169 611 s~ \$0-to-show-buffer;
#X text 485 593 To Audio Output;
#X text 28 716 To Analyser;
#X text 172 629 To Buffer Display;
#X obj 70 664 s~ \$0-to-analyzer-r;
#X obj 29 686 s~ \$0-to-analyzer-l;
#X obj 380 640 throw~ \$0-main-out-l;
#X obj 386 727 catch~ \$0-main-out-l;
#X obj 431 750 catch~ \$0-main-out-r;
#X obj 607 158 loadbang;
#X msg 607 186 set open amenbreak.wav;
#X text 608 210 Amen Break as Initial Soundifle;
#X text 108 127 Audio to Analyzer;
#X obj 484 122 s \$0-start-stop-sound-file-player;
#X connect 0 0 10 0;
#X connect 0 1 10 1;
#X connect 1 0 2 0;
#X connect 2 0 3 0;
#X connect 3 0 7 0;
#X connect 4 0 7 0;
#X connect 5 0 7 0;
#X connect 6 0 4 0;
#X connect 6 1 3 0;
#X connect 7 0 8 0;
#X connect 7 1 8 1;
#X connect 7 2 6 0;
#X connect 8 0 14 0;
#X connect 8 0 20 0;
#X connect 8 0 42 0;
#X connect 8 0 47 0;
#X connect 8 1 14 1;
#X connect 8 1 23 0;
#X connect 8 1 42 0;
#X connect 8 1 46 0;
#X connect 9 0 8 2;
#X connect 10 0 14 0;
#X connect 10 0 20 0;
#X connect 10 0 42 0;
#X connect 10 0 47 0;
#X connect 10 1 14 1;
#X connect 10 1 23 0;
#X connect 10 1 42 0;
#X connect 10 1 46 0;
#X connect 11 0 10 2;
#X connect 14 0 48 0;
#X connect 14 1 17 0;
#X connect 15 0 14 2;
#X connect 19 0 5 0;
#X connect 19 1 6 0;
#X connect 20 0 21 0;
#X connect 21 0 22 0;
#X connect 23 0 24 0;
#X connect 24 0 25 0;
#X connect 28 0 1 0;
#X connect 29 0 19 0;
#X connect 29 0 55 0;
#X connect 32 0 11 0;
#X connect 33 0 9 0;
#X connect 37 0 15 0;
#X connect 49 0 16 0;
#X connect 50 0 16 1;
#X connect 51 0 52 0;
#X connect 52 0 3 0;
#X coords 0 -1 1 1 280 140 2 10 10;
#X restore 24 50 pd audio-input;
#N canvas 204 288 725 528 to_lern_about 0;
#N canvas 713 346 570 417 onsets 0;
#X obj 56 53 inlet~;
#X obj 176 347 outlet;
#X obj 3 4 cnv 10 400 10 empty empty empty 20 12 0 14 -233017 -66577
0;
#X obj 3 4 cnv 10 10 400 empty empty empty 20 12 0 14 -233017 -66577
0;
#X obj 208 193 bng 15 250 50 0 empty empty empty 17 7 0 10 -262144
-1 -1;
#X obj 259 96 loadbang;
#X obj 56 335 outlet~;
#X obj 176 155 bark~ 4096 1024 0.5;
#X msg 259 119 minvel 50 \, debounce 200 \, thresh -1 20;
#X connect 0 0 6 0;
#X connect 0 0 7 0;
#X connect 5 0 8 0;
#X connect 7 0 4 0;
#X connect 7 0 1 0;
#X connect 8 0 7 0;
#X restore 372 310 pd onsets;
#X obj 372 343 attackTime~ 4096;
#X text 445 308 Audio Onset Detection (amplitude peak);
#X obj 118 80 zeroCrossing~ 2048;
#X text 241 82 Ermittelt Noisiness;
#X obj 118 105 specBrightness~ 1024 1200;
#X text 279 104 Ermittelt Noisiness;
#X text 329 115 Creation arguments are window size in samples \, and
a boundary frequency to determine the ratio of high spectral content.
, f 47;
#X obj 119 128 barkSpecBrightness~ 2048;
#X obj 121 208 cepstrum~ 2048;
#X obj 121 230 bfcc~ 2048 0.25;
#X obj 120 185 attackTime~ 4096;
#X text 127 36 To learn about:;
#X connect 0 0 1 0;
#X connect 0 1 1 0;
#X restore 862 274 pd to_lern_about;
#N canvas 544 251 770 549 feature-list-builder 0;
#X obj 187 194 list prepend;
#X obj 220 220 t l;
#X obj 187 354 spigot 0;
#X obj 187 375 t l b;
#X msg 254 327 1, f 1;
#X msg 274 327 0, f 1;
#X obj 54 208 f;
#X obj 54 296 mod;
#X obj 93 208 + 1;
#X obj 54 330 select;
#X obj 87 307 - 1;
#X msg 69 178 0, f 2;
#X obj 27 130 t l b;
#X obj 27 13 inlet;
#X obj 187 462 outlet;
#X obj 398 52 bang;
#X obj 199 12 inlet;
#X obj 398 19 inlet;
#X obj 124 253 loadbang;
#X msg 124 274 1;
#X text 188 484 Compiled Features Lists OUTLET;
#X text 244 13 HOW MANY FEATURE LISTS;
#X text 440 16 RESET;
#X text 66 13 FEATURE LISTS INPUT;
#X obj 397 461 outlet;
#X text 399 486 DONE monitor Out;
#X obj 397 438 bang;
#X obj 540 432 + 1;
#X obj 540 453 outlet;
#X text 534 483 Counter Monitor;
#X connect 0 0 1 0;
#X connect 0 0 2 0;
#X connect 1 0 0 1;
#X connect 2 0 3 0;
#X connect 3 0 14 0;
#X connect 3 0 26 0;
#X connect 3 1 5 0;
#X connect 3 1 0 1;
#X connect 4 0 2 1;
#X connect 5 0 2 1;
#X connect 6 0 7 0;
#X connect 6 0 8 0;
#X connect 7 0 9 0;
#X connect 7 0 27 0;
#X connect 8 0 6 1;
#X connect 9 0 11 0;
#X connect 9 0 4 0;
#X connect 10 0 9 1;
#X connect 11 0 6 1;
#X connect 12 0 0 0;
#X connect 12 1 6 0;
#X connect 13 0 12 0;
#X connect 15 0 0 1;
#X connect 15 0 11 0;
#X connect 16 0 10 0;
#X connect 16 0 7 1;
#X connect 16 0 11 0;
#X connect 17 0 15 0;
#X connect 18 0 19 0;
#X connect 19 0 10 0;
#X connect 19 0 7 1;
#X connect 26 0 24 0;
#X connect 27 0 28 0;
#X restore 33 794 pd feature-list-builder;
#X floatatom 184 761 5 1 20 1 How_many_Features_per_List - -;
#X obj 184 779 bng 15 250 50 0 empty empty RESET 17 7 0 10 -228856
-4034 -1;
#X obj 618 115 samplerate~;
#X obj 618 92 r pd-dsp-started;
#X floatatom 618 166 8 0 0 0 - - -;
#N canvas 588 387 403 188 buffer_display 0;
#X obj 10 10 cnv 15 200 140 empty empty ANYLZER_BUFFER 5 10 0 12 -228856
-66577 0;
#N canvas 0 50 450 300 (subpatch) 0;
#X array \$0-sampleBuffer-graph 1024 float 0;
#X coords 0 1 1023 -1 100 70 2 0 0;
#X restore 15 76 graph;
#N canvas 743 506 702 345 show-buffer 0;
#N canvas 205 170 462 302 do-plotting 0;
#X obj 79 37 inlet;
#X obj 79 203 list prepend 0;
#X obj 203 116 list length;
#X obj 203 138 change;
#X obj 203 160 pack f \$0;
#X obj 79 59 t l l;
#X obj 79 224 s \$0-sampleBuffer-graph;
#X msg 203 181 \; \$2-sampleBuffer-graph resize \$1 \;;
#X connect 0 0 5 0;
#X connect 1 0 6 0;
#X connect 2 0 3 0;
#X connect 3 0 4 0;
#X connect 4 0 7 0;
#X connect 5 0 1 0;
#X connect 5 1 2 0;
#X restore 22 281 pd do-plotting;
#X obj 22 257 sampleBuffer~ 1024;
#X msg 452 194 window 2048;
#X text 43 49 SHOW BUFFER;
#X obj 22 22 r~ \$0-to-show-buffer;
#X obj 22 83 clip~ -1 1;
#X obj 156 151 bng 15 250 50 0 empty empty empty 17 7 0 10 -228856
-1 -1;
#X obj 202 127 metro 100;
#X obj 156 172 spigot 1;
#X obj 156 79 r \$0-show-buff-now;
#X obj 306 21 inlet;
#X obj 306 42 clip 0 1;
#X obj 366 21 inlet;
#X obj 366 42 clip 0 1;
#X connect 1 0 0 0;
#X connect 2 0 1 0;
#X connect 4 0 5 0;
#X connect 5 0 1 0;
#X connect 6 0 8 0;
#X connect 7 0 6 0;
#X connect 8 0 1 0;
#X connect 9 0 6 0;
#X connect 10 0 11 0;
#X connect 11 0 8 1;
#X connect 12 0 13 0;
#X connect 13 0 7 0;
#X restore 236 118 pd show-buffer;
#X obj 15 46 tgl 15 1 empty empty empty 17 7 0 10 -191407 -4034 -1
0 1;
#X obj 15 29 tgl 15 1 empty empty empty 17 7 0 10 -191407 -4034 -1
1 1;
#X text 34 46 DISPLAY BUFFER CONTINUOUSLY;
#X text 136 131 Block 1024;
#X text 34 28 DISPLAY ANALYZED BUFFER;
#X connect 3 0 2 1;
#X connect 4 0 2 0;
#X coords 0 -1 1 1 200 140 2 10 10;
#X restore 314 50 pd buffer_display;
#N canvas 725 25 690 627 bfcc_1024_val_1-20 0;
#X obj 23 57 inlet~;
#X obj 233 57 inlet;
#X obj 57 417 outlet;
#X obj 23 245 bfcc~ 1024;
#X text 19 33 Audio IN;
#X text 179 32 Trigger IN;
#X obj 23 319 list split 1;
#X obj 23 298 list split 20;
#X obj 373 57 inlet;
#X text 304 32 On/Off Toggle IN;
#X obj 241 429 outlet;
#X obj 243 79 r \$0-vol-onset-trig;
#X obj 258 101 r \$0-samp-repeat-trig;
#X obj 233 160 spigot 0;
#X obj 272 122 r \$0-midi-clock-trig;
#N canvas 0 23 323 105 audio-signal_L-R 0;
#X obj 11 19 r~ \$0-to-analyzer-l;
#X obj 136 19 r~ \$0-to-analyzer-r;
#X obj 11 40 outlet~;
#X obj 136 40 outlet~;
#X connect 0 0 2 0;
#X connect 1 0 3 0;
#X restore 42 85 pd audio-signal_L-R;
#X text 78 395 Features Out;
#X text 258 404 Activity Monitor out;
#X connect 0 0 3 0;
#X connect 1 0 13 0;
#X connect 3 0 7 0;
#X connect 6 1 2 0;
#X connect 7 0 6 0;
#X connect 8 0 13 1;
#X connect 11 0 13 0;
#X connect 12 0 13 0;
#X connect 13 0 3 0;
#X connect 13 0 10 0;
#X connect 14 0 13 0;
#X connect 15 0 3 0;
#X restore 33 408 pd bfcc_1024_val_1-20;
#X obj 156 386 tgl 15 0 empty empty ON/OFF 17 7 0 10 -191407 -204786
-1 0 1;
#X obj 655 552 tgl 15 0 empty empty ON/OFF 17 7 0 10 -191407 -204786
-1 0 1;
#X obj 638 136 s \$0-sample-rate;
#X obj 676 590 bng 15 250 50 0 empty empty empty 17 7 0 10 -228856
-258113 -1;
#X obj 171 424 bng 15 250 50 0 empty empty empty 17 7 0 10 -228856
-258113 -1;
#N canvas 565 152 884 602 AttTime_4096_SpecBright_2048_bfcc_2048_1-20
0;
#X obj 19 467 list append;
#X obj 82 429 list append;
#X obj 359 155 t b b b b b b;
#X obj 19 506 outlet;
#X obj 20 271 attackTime~ 4096;
#X obj 330 316 list split 1;
#X obj 448 18 inlet;
#X text 490 16 On/Off Toggle IN;
#X obj 151 515 outlet;
#X obj 330 266 bfcc~ 2048 0.5;
#X obj 330 295 list split 20;
#X obj 136 268 specBrightness~ 2048 1000;
#N canvas 0 23 323 105 audio-signal_L-R 0;
#X obj 11 19 r~ \$0-to-analyzer-l;
#X obj 136 19 r~ \$0-to-analyzer-r;
#X obj 11 40 outlet~;
#X obj 136 40 outlet~;
#X connect 0 0 2 0;
#X connect 1 0 3 0;
#X restore 94 35 pd audio-signal_L-R;
#X obj 368 48 r \$0-vol-onset-trig;
#X obj 383 70 r \$0-samp-repeat-trig;
#X obj 18 17 inlet~;
#X obj 358 17 inlet;
#X obj 359 126 spigot 0;
#X obj 397 92 r \$0-midi-clock-trig;
#X text 31 484 Features Out;
#X text 180 495 Activity Monitor out;
#X connect 0 0 3 0;
#X connect 1 0 0 1;
#X connect 2 0 4 0;
#X connect 2 1 11 0;
#X connect 2 2 9 0;
#X connect 4 0 0 0;
#X connect 5 1 1 1;
#X connect 6 0 17 1;
#X connect 9 0 10 0;
#X connect 10 0 5 0;
#X connect 11 0 1 0;
#X connect 12 0 9 0;
#X connect 12 0 11 0;
#X connect 12 0 4 0;
#X connect 13 0 17 0;
#X connect 14 0 17 0;
#X connect 15 0 4 0;
#X connect 15 0 11 0;
#X connect 15 0 9 0;
#X connect 16 0 17 0;
#X connect 17 0 2 0;
#X connect 17 0 8 0;
#X connect 18 0 17 0;
#X restore 382 574 pd AttTime_4096_SpecBright_2048_bfcc_2048_1-20;
#N canvas 232 307 843 579 vol-onset-trig-controller 0;
#X obj 10 10 cnv 15 240 140 empty empty Volume_Onset_Trigger 5 10 0
12 -228856 -66577 0;
#X floatatom 17 72 6 0 20 1 How_often - -;
#X obj 17 51 bng 15 250 50 0 empty empty DO_IT 17 7 0 10 -204786 -191407
-1;
#X obj 199 125 bng 15 250 50 0 empty empty empty 17 7 0 10 -228856
-258113 -1;
#N canvas 669 135 976 542 volume-onset-trigger 0;
#X obj 226 23 inlet~;
#X obj 228 475 outlet;
#X obj 381 303 f;
#X obj 411 303 + 1;
#X obj 381 349 mod;
#X obj 396 377 - 1;
#X obj 381 400 sel;
#X msg 425 270 0;
#X obj 528 28 inlet;
#X text 571 25 How often;
#X obj 228 270 spigot;
#X obj 336 270 spigot;
#X msg 356 244 0, f 1;
#X msg 376 244 1, f 1;
#X msg 287 245 1, f 1;
#X msg 267 245 0, f 1;
#X obj 567 102 sel 0;
#X obj 594 134 t f b;
#X obj 528 53 moses 0;
#X obj 567 79 change;
#X obj 335 185 spigot 0;
#X msg 406 146 0, f 2;
#X msg 380 140 1, f 2;
#X obj 380 22 inlet;
#X text 424 22 do it;
#X obj 377 502 s \$0-show-buff-now;
#X obj 647 467 + 1;
#X obj 647 490 outlet;
#X text 697 489 Counter Outlet;
#X obj 587 490 outlet;
#X obj 711 32 inlet;
#X text 749 33 bark settings;
#X obj 226 128 bark~ 1024 128 0.5;
#X msg 131 109 print;
#X obj 134 78 r \$0-print-bark-settings;
#X connect 0 0 32 0;
#X connect 2 0 3 0;
#X connect 2 0 4 0;
#X connect 3 0 2 1;
#X connect 4 0 6 0;
#X connect 4 0 26 0;
#X connect 5 0 6 1;
#X connect 6 0 7 0;
#X connect 6 0 21 0;
#X connect 7 0 2 1;
#X connect 8 0 18 0;
#X connect 10 0 1 0;
#X connect 10 0 25 0;
#X connect 11 0 2 0;
#X connect 11 0 1 0;
#X connect 11 0 25 0;
#X connect 12 0 11 1;
#X connect 12 0 27 0;
#X connect 13 0 11 1;
#X connect 14 0 10 1;
#X connect 15 0 10 1;
#X connect 16 0 14 0;
#X connect 16 0 12 0;
#X connect 16 1 17 0;
#X connect 17 0 5 0;
#X connect 17 0 4 1;
#X connect 17 1 13 0;
#X connect 17 1 15 0;
#X connect 17 1 7 0;
#X connect 18 1 19 0;
#X connect 19 0 16 0;
#X connect 20 0 11 0;
#X connect 21 0 20 1;
#X connect 21 0 29 0;
#X connect 22 0 20 1;
#X connect 22 0 29 0;
#X connect 23 0 22 0;
#X connect 26 0 27 0;
#X connect 30 0 32 0;
#X connect 32 0 10 0;
#X connect 32 0 20 0;
#X connect 33 0 32 0;
#X connect 34 0 33 0;
#X restore 26 457 pd volume-onset-trigger;
#X floatatom 214 125 4 0 0 0 - - -;
#X obj 184 125 tgl 15 0 empty empty empty 17 7 0 10 -228856 -258113
-1 1 1;
#X text 113 71 (0 = continuouse);
#N canvas 0 23 323 105 audio-signal_L-R 0;
#X obj 11 19 r~ \$0-to-analyzer-l;
#X obj 136 19 r~ \$0-to-analyzer-r;
#X obj 11 40 outlet~;
#X obj 136 40 outlet~;
#X connect 0 0 2 0;
#X connect 1 0 3 0;
#X restore 26 168 pd audio-signal_L-R;
#X obj 26 495 s \$0-vol-onset-trig;
#X obj 319 13 loadbang;
#X obj 319 34 t b b;
#X msg 358 60 1;
#X msg 319 61 0;
#X obj 361 85 t b f;
#X obj 321 85 t b f;
#X text 182 108 ACTIVITY;
#X obj 329 110 sel 0;
#X msg 329 131 1;
#X msg 359 131 0;
#N canvas 166 134 1179 454 \$0-bark-settings-generator 0;
#X obj 49 392 outlet;
#X floatatom 17 70 5 0 0 1 Threshold_LO - -;
#X floatatom 17 90 5 0 0 1 Threshold_HI - -;
#X floatatom 155 70 5 0 50 1 Analyzer_Filters_LO - -;
#X floatatom 155 90 5 0 49 1 Analyzer_Filters_HI - -;
#X obj 889 96 bng 15 250 50 0 empty empty empty 17 7 0 10 -262144 -1
-1;
#X obj 889 116 t b b b b b b b b b;
#X msg 1000 145 set;
#X obj 934 85 r \$0-bark-settings;
#X obj 49 347 r \$0-bark-settings-list;
#X obj 1000 170 s \$0-bark-settings-list;
#X msg 131 374 mask 4 0.75 \, debounce 100 \, filter_range 0 49 \,
thresh -1 6.5 \, minvel 300;
#X obj 919 203 s \$0-send-bark-settings-to-bark;
#N canvas 0 23 545 411 \$0-bark-threshold 0;
#X obj 172 81 inlet;
#X obj 212 81 inlet;
#X obj 75 81 inlet;
#X msg 173 267 add2 thresh -1 6.5;
#X obj 171 171 pack f f;
#X obj 171 192 t b l;
#X msg 198 222 set add2 thresh \$1 \$2;
#X obj 132 239 t b b;
#X msg 132 290 addcomma;
#X obj 211 121 t b b f;
#X obj 171 121 t b f;
#X obj 233 170 s \$0-bark-settings;
#X obj 132 320 s \$0-bark-settings-list;
#X connect 0 0 10 0;
#X connect 1 0 9 0;
#X connect 2 0 7 0;
#X connect 3 0 12 0;
#X connect 4 0 5 0;
#X connect 5 0 3 0;
#X connect 5 1 6 0;
#X connect 6 0 3 0;
#X connect 7 0 8 0;
#X connect 7 1 3 0;
#X connect 8 0 12 0;
#X connect 9 0 11 0;
#X connect 9 1 4 0;
#X connect 9 2 4 1;
#X connect 10 0 11 0;
#X connect 10 1 4 0;
#X restore 225 266 pd \$0-bark-threshold;
#N canvas 0 23 545 411 \$0-bark-analyzer-filter 0;
#X obj 172 81 inlet;
#X obj 212 81 inlet;
#X obj 75 81 inlet;
#X msg 173 267 add2 filter_range 0 49;
#X obj 171 171 pack f f;
#X obj 171 192 t b l;
#X obj 132 239 t b b;
#X msg 132 290 addcomma;
#X obj 211 121 t b b f;
#X obj 171 121 t b f;
#X obj 233 170 s \$0-bark-settings;
#X obj 132 320 s \$0-bark-settings-list;
#X msg 198 222 set add2 filter_range \$1 \$2;
#X connect 0 0 9 0;
#X connect 1 0 8 0;
#X connect 2 0 6 0;
#X connect 3 0 11 0;
#X connect 4 0 5 0;
#X connect 5 0 3 0;
#X connect 5 1 12 0;
#X connect 6 0 7 0;
#X connect 6 1 3 0;
#X connect 7 0 11 0;
#X connect 8 0 10 0;
#X connect 8 1 4 0;
#X connect 8 2 4 1;
#X connect 9 0 10 0;
#X connect 9 1 4 0;
#X connect 12 0 3 0;
#X restore 400 267 pd \$0-bark-analyzer-filter;
#X floatatom 155 39 5 0 2000 1 Debounce_(in_ms) - -;
#N canvas 0 23 545 411 \$0-bark-debounce 0;
#X obj 171 86 inlet;
#X obj 75 81 inlet;
#X msg 173 267 add2 debounce 100;
#X obj 171 171 pack f f;
#X obj 171 192 t b l;
#X obj 132 239 t b b;
#X msg 132 290 addcomma;
#X obj 171 121 t b f;
#X obj 233 170 s \$0-bark-settings;
#X obj 132 320 s \$0-bark-settings-list;
#X msg 198 222 set add2 debounce \$1;
#X connect 0 0 7 0;
#X connect 1 0 5 0;
#X connect 2 0 9 0;
#X connect 3 0 4 0;
#X connect 4 0 2 0;
#X connect 4 1 10 0;
#X connect 5 0 6 0;
#X connect 5 1 2 0;
#X connect 6 0 9 0;
#X connect 7 0 8 0;
#X connect 7 1 3 0;
#X connect 10 0 2 0;
#X restore 606 271 pd \$0-bark-debounce;
#X floatatom 16 39 5 0 2000 1 Minimal_Velocity - -;
#N canvas 0 23 545 411 \$0-bark-minvel 0;
#X obj 171 86 inlet;
#X obj 75 81 inlet;
#X msg 173 267 add2 minvel 300;
#X obj 171 171 pack f f;
#X obj 171 192 t b l;
#X obj 132 239 t b b;
#X msg 132 290 addcomma;
#X obj 171 121 t b f;
#X obj 233 170 s \$0-bark-settings;
#X obj 132 320 s \$0-bark-settings-list;
#X msg 198 222 set add2 minvel \$1;
#X text 7 265 no adcomm for last value;
#X connect 0 0 7 0;
#X connect 1 0 5 0;
#X connect 2 0 9 0;
#X connect 3 0 4 0;
#X connect 4 0 2 0;
#X connect 4 1 10 0;
#X connect 5 1 2 0;
#X connect 6 0 9 0;
#X connect 7 0 8 0;
#X connect 7 1 3 0;
#X connect 10 0 2 0;
#X restore 50 267 pd \$0-bark-minvel;
#X floatatom 318 70 5 1 20 1 Mask_(analysis_cycles) - -;
#X floatatom 318 90 5 0 1 1 Mask_(decay_rate_0-1) - -;
#N canvas 0 23 545 411 \$0-bark-mask 0;
#X obj 172 81 inlet;
#X obj 212 81 inlet;
#X obj 75 81 inlet;
#X msg 173 267 add2 mask 4 0.75;
#X obj 171 171 pack f f;
#X obj 171 192 t b l;
#X obj 132 239 t b b;
#X msg 132 290 addcomma;
#X obj 211 121 t b b f;
#X obj 171 121 t b f;
#X obj 233 170 s \$0-bark-settings;
#X obj 132 320 s \$0-bark-settings-list;
#X msg 198 222 set add2 mask \$1 \$2;
#X connect 0 0 9 0;
#X connect 1 0 8 0;
#X connect 2 0 6 0;
#X connect 3 0 11 0;
#X connect 4 0 5 0;
#X connect 5 0 3 0;
#X connect 5 1 12 0;
#X connect 6 0 7 0;
#X connect 6 1 3 0;
#X connect 7 0 11 0;
#X connect 8 0 10 0;
#X connect 8 1 4 0;
#X connect 8 2 4 1;
#X connect 9 0 10 0;
#X connect 9 1 4 0;
#X connect 12 0 3 0;
#X restore 761 274 pd \$0-bark-mask;
#X obj 632 5 loadbang;
#X msg 640 57 -1;
#X msg 633 82 6.5;
#X msg 690 56 0;
#X msg 682 79 49;
#X msg 740 55 4;
#X msg 732 78 0.75;
#X text 738 19 INITIAL VALUES;
#X text 19 14 bark~ settings;
#X msg 662 26 100;
#X msg 633 28 300;
#X connect 1 0 13 1;
#X connect 2 0 13 2;
#X connect 3 0 14 1;
#X connect 4 0 14 2;
#X connect 5 0 6 0;
#X connect 6 0 12 0;
#X connect 6 3 18 0;
#X connect 6 4 13 0;
#X connect 6 5 14 0;
#X connect 6 6 16 0;
#X connect 6 7 21 0;
#X connect 6 8 7 0;
#X connect 7 0 10 0;
#X connect 8 0 6 0;
#X connect 9 0 11 0;
#X connect 9 0 0 0;
#X connect 15 0 16 1;
#X connect 17 0 18 1;
#X connect 19 0 21 1;
#X connect 20 0 21 2;
#X connect 22 0 32 0;
#X connect 22 0 31 0;
#X connect 22 0 23 0;
#X connect 22 0 24 0;
#X connect 22 0 25 0;
#X connect 22 0 26 0;
#X connect 22 0 27 0;
#X connect 22 0 28 0;
#X connect 23 0 1 0;
#X connect 24 0 2 0;
#X connect 25 0 3 0;
#X connect 26 0 4 0;
#X connect 27 0 19 0;
#X connect 28 0 20 0;
#X connect 31 0 15 0;
#X connect 32 0 17 0;
#X coords 0 -1 1 1 500 100 2 10 10;
#X restore 243 204 pd \$0-bark-settings-generator;
#X msg 243 381 mask 4 0.75 \, debounce 100 \, filter_range 0 49 \,
thresh -1 6.5 \, minvel 300;
#X obj 257 336 r \$0-send-bark-settings-to-bark;
#X text 268 363 current bark settings;
#X obj 17 125 bng 15 250 50 0 \$0-print-bark-settings empty Print_Settings
17 7 0 10 -191407 -1 -1;
#X text 12 25 (open to change settings);
#X obj 540 129 sel 0 1;
#X obj 540 31 r \$0-start-stop-sound-file-player;
#X obj 540 103 spigot;
#X obj 73 51 tgl 15 0 empty empty Sync-to-Audioplayer-Start 17 7 0
10 -191407 -204786 -1 0 1;
#X msg 282 35 0;
#X text 546 51 Receive Start/Stop from Audio Soundfile Player;
#X text 241 184 EDIT Envelope Peak Detection Parameter here:;
#X connect 1 0 4 2;
#X connect 1 0 17 0;
#X connect 2 0 4 1;
#X connect 4 0 9 0;
#X connect 4 0 3 0;
#X connect 4 1 6 0;
#X connect 4 2 5 0;
#X connect 8 0 4 0;
#X connect 10 0 11 0;
#X connect 10 0 30 0;
#X connect 11 0 13 0;
#X connect 11 1 12 0;
#X connect 12 0 14 0;
#X connect 13 0 15 0;
#X connect 14 0 2 0;
#X connect 14 1 1 0;
#X connect 15 0 2 0;
#X connect 15 1 1 0;
#X connect 17 0 18 0;
#X connect 17 1 19 0;
#X connect 18 0 6 0;
#X connect 19 0 6 0;
#X connect 20 0 21 0;
#X connect 21 0 4 3;
#X connect 22 0 21 0;
#X connect 26 1 2 0;
#X connect 27 0 28 0;
#X connect 28 0 26 0;
#X connect 29 0 28 1;
#X connect 30 0 29 0;
#X coords 0 -1 1 1 240 140 1 10 10;
#X restore 24 197 pd vol-onset-trig-controller;
#N canvas 716 128 749 376 sample-acc-trig-controller 0;
#X obj 10 10 cnv 15 280 140 empty empty Sample_Accurate_Repeated_Trigger
5 10 0 12 -228856 -66577 0;
#X obj 20 41 bng 15 250 50 0 empty empty DO_IT 17 7 0 10 -204786 -191407
-1;
#X obj 224 125 tgl 15 0 empty empty empty 17 7 0 10 -228856 -258113
-1 0 1;
#X obj 239 125 bng 15 250 50 0 empty empty empty 17 7 0 10 -228856
-258113 -1;
#X floatatom 20 67 6 1 20 1 How_often - -;
#X floatatom 21 86 8 1 89600 1 Speed_in_samples - -;
#X msg 484 129 1024;
#N canvas 627 275 845 568 sample-accurate-repeated-trigger 0;
#X obj 201 30 inlet;
#X obj 31 431 outlet;
#X obj 211 321 f;
#X obj 241 321 + 1;
#X obj 211 367 mod;
#X obj 226 395 - 1;
#X obj 211 418 sel;
#X msg 284 292 0, f 1;
#X msg 162 193 0, f 1;
#X msg 201 188 1, f 1;
#X obj 452 34 inlet;
#X obj 452 174 t b f;
#X obj 468 497 outlet;
#X text 243 29 bang to start;
#X text 498 34 How Many;
#X obj 567 35 inlet;
#X obj 201 223 metro 22400 1 samp;
#X obj 111 159 spigot;
#X obj 201 159 spigot;
#X obj 223 84 sel 1;
#X obj 250 106 bang;
#X msg 221 133 0, f 1;
#X msg 241 133 1, f 1;
#X msg 171 134 1, f 1;
#X msg 151 134 0, f 1;
#X text 248 162 Bypass metro if only 1 iteration;
#X obj 103 466 s \$0-show-buff-now;
#X obj 498 452 outlet;
#X obj 498 431 + 1;
#X text 547 451 Counter Monitor Outlet;
#X text 515 497 In Progress Monitor Outlet;
#X obj 211 289 spigot 0;
#X obj 641 30 inlet;
#X obj 641 51 sel 0 1;
#X text 686 25 Tur On/Off Endless Mode;
#X msg 641 72 1, f 1;
#X msg 661 72 0, f 1;
#X connect 0 0 17 0;
#X connect 0 0 18 0;
#X connect 2 0 3 0;
#X connect 2 0 4 0;
#X connect 2 0 28 0;
#X connect 3 0 2 1;
#X connect 4 0 6 0;
#X connect 5 0 6 1;
#X connect 6 0 7 0;
#X connect 6 0 8 0;
#X connect 7 0 2 1;
#X connect 8 0 12 0;
#X connect 8 0 16 0;
#X connect 9 0 12 0;
#X connect 9 0 16 0;
#X connect 10 0 19 0;
#X connect 10 0 11 0;
#X connect 11 0 7 0;
#X connect 11 1 5 0;
#X connect 11 1 4 1;
#X connect 15 0 16 1;
#X connect 16 0 1 0;
#X connect 16 0 26 0;
#X connect 16 0 31 0;
#X connect 17 0 1 0;
#X connect 17 0 26 0;
#X connect 18 0 9 0;
#X connect 19 0 23 0;
#X connect 19 0 21 0;
#X connect 19 1 20 0;
#X connect 20 0 22 0;
#X connect 20 0 24 0;
#X connect 21 0 18 1;
#X connect 22 0 18 1;
#X connect 23 0 17 1;
#X connect 23 0 27 0;
#X connect 24 0 17 1;
#X connect 24 0 27 0;
#X connect 28 0 27 0;
#X connect 31 0 2 0;
#X connect 32 0 33 0;
#X connect 33 0 35 0;
#X connect 33 1 36 0;
#X connect 35 0 31 1;
#X connect 36 0 31 1;
#X restore 100 242 pd sample-accurate-repeated-trigger;
#X msg 556 129 22400;
#X msg 520 129 2048;
#X msg 452 129 512;
#X msg 421 129 128;
#X msg 599 129 44800;
#X floatatom 254 125 4 0 0 0 - - -;
#X obj 100 290 s \$0-samp-repeat-trig;
#X obj 190 86 hradio 15 1 0 6 empty empty Speed_Presets 0 -8 0 10 -191407
-204786 -1 4;
#X obj 527 96 sel 0 1 2 3 4 5;
#X obj 547 11 loadbang;
#X msg 547 32 4;
#X text 222 109 ACTIVITY;
#X msg 491 33 1;
#X obj 21 125 tgl 15 0 empty empty Endless_On/Off 17 7 0 10 -261234
-1 -1 0 1;
#X obj 268 184 t b b f;
#X msg 325 203 2;
#X connect 1 0 7 0;
#X connect 4 0 7 1;
#X connect 5 0 7 2;
#X connect 6 0 5 0;
#X connect 7 0 14 0;
#X connect 7 0 3 0;
#X connect 7 1 2 0;
#X connect 7 2 13 0;
#X connect 8 0 5 0;
#X connect 9 0 5 0;
#X connect 10 0 5 0;
#X connect 11 0 5 0;
#X connect 12 0 5 0;
#X connect 15 0 16 0;
#X connect 16 0 11 0;
#X connect 16 1 10 0;
#X connect 16 2 6 0;
#X connect 16 3 9 0;
#X connect 16 4 8 0;
#X connect 16 5 12 0;
#X connect 17 0 18 0;
#X connect 17 0 20 0;
#X connect 18 0 15 0;
#X connect 20 0 4 0;
#X connect 21 0 22 0;
#X connect 22 0 7 0;
#X connect 22 1 5 0;
#X connect 22 1 23 0;
#X connect 22 2 7 3;
#X connect 23 0 4 0;
#X coords 0 -1 1 1 280 140 1 10 10;
#X restore 269 197 pd sample-acc-trig-controller;
#X obj 184 810 bng 15 250 50 0 empty empty empty 17 7 0 10 -228856
-258113 -1;
#X obj 250 712 loadbang;
#X msg 250 733 1;
#N canvas 595 37 941 511 midi-clock-sync-trig-controller 0;
#X msg 403 233 248;
#X obj 549 197 sel 0 1;
#X msg 549 231 252;
#X msg 583 231 250;
#X text 616 230 MIDI START/STOP;
#X text 402 81 FAKE MIDI CLOCK;
#X obj 10 10 cnv 15 220 140 empty empty MIDI_Synced_Trigger 5 10 0
12 -228856 -66577 0;
#X floatatom 167 89 6 0 0 1 BPM #0-r-bpm-monitor #0-s-bpm-monitor;
#X obj 190 333 s \$0-r-bpm-monitor;
#X obj 122 369 s \$0-r-ms-monitor;
#X floatatom 167 107 6 0 0 1 ms #0-r-ms-monitor #0-s-ms-monitor;
#X obj 56 395 s \$0-r-bang-monitor;
#X obj 167 125 bng 15 250 50 0 \$0-s-bang-monitor \$0-r-bang-monitor
Trigger 17 7 0 10 -228856 -258113 -1;
#X obj 16 50 vradio 15 1 0 6 \$0-s-time-div-selector \$0-r-time-div-selector
empty 0 -8 0 10 -191407 -204786 -1 0;
#X text 33 50 1/4;
#X text 33 65 1/4T;
#X text 33 80 1/8;
#X text 33 95 1/8T;
#X text 33 110 1/16;
#X text 33 125 1/16T;
#X obj 44 421 s \$0-midi-clock-trig;
#X obj 16 30 tgl 15 0 \$0-s-midi-sync-trig-on-off \$0-r-midi-sync-trig-on-off
ON/OFF 17 7 0 10 -204786 -1 -1 0 1;
#X obj 82 110 vradio 15 1 1 2 \$0-s-trig-bang-selector \$0-r-trig-bang-selector
empty 0 -8 0 10 -191407 -204786 -1 1;
#X text 99 109 PPQ;
#X text 99 124 CLOCK;
#X text 78 91 TRIG SYNC;
#N canvas 394 204 998 683 midi-clock-sync-trig 0;
#X obj 369 100 midirealtimein;
#X obj 369 170 sel 248 250 252;
#X obj 398 278 + 1;
#X obj 369 279 f;
#X msg 408 241 0;
#X msg 403 208 0;
#X obj 369 328 mod 24;
#X obj 369 352 sel 0;
#X obj 456 255 sel 95;
#X text 441 210 reset counter on midi start stop;
#X obj 450 448 expr int($f1*10)/10;
#X text 573 446 round bpm to 0.1;
#X msg 104 274 24;
#X msg 144 274 16;
#X msg 184 274 12;
#X msg 224 274 8;
#X msg 264 274 6;
#X msg 304 274 4;
#X text 101 250 1/4;
#X text 141 250 1/4T;
#X text 181 250 1/8;
#X text 222 250 1/8T;
#X text 262 250 1/16;
#X text 302 250 1/16T;
#X text 465 422 Bang \, ms and bpm out.;
#X text 602 421 Refreshing at ppg 1;
#X obj 106 224 sel 0 1 2 3 4 5;
#X obj 157 133 loadbang;
#X msg 157 154 0, f 1;
#X obj 369 524 spigot 0;
#X obj 235 379 sel 0 1;
#X obj 309 484 spigot 0;
#X obj 369 484 spigot 0;
#X msg 235 427 0, f 1;
#X msg 285 427 0, f 1;
#X msg 253 427 1, f 1;
#X msg 303 427 1, f 1;
#X obj 793 54 inlet;
#X text 832 54 MIDI FAKE CLOCK IN;
#X obj 46 41 inlet;
#X text 85 41 Time Division Selector (0-5);
#X obj 369 565 outlet;
#X obj 429 565 outlet;
#X obj 520 566 outlet;
#X obj 282 39 inlet;
#X text 322 40 ppq or clock sync (0-1);
#X obj 482 39 inlet;
#X text 525 40 ON/OFF (0-1);
#X obj 482 60 clip 0 1;
#X text 369 598 TRIG;
#X text 424 593 Milliseconds;
#X text 522 588 BPM;
#X text 466 100 Receive MIDI realtime clock messages;
#X text 479 169 select: clock-ppq start stop;
#X msg 185 157 1;
#X obj 369 425 tap_tempo_7_TH;
#X obj 185 180 s \$0-r-trig-bang-selector;
#X connect 0 0 1 0;
#X connect 1 0 3 0;
#X connect 1 1 5 0;
#X connect 1 2 5 0;
#X connect 2 0 3 1;
#X connect 3 0 2 0;
#X connect 3 0 6 0;
#X connect 3 0 8 0;
#X connect 4 0 3 1;
#X connect 5 0 3 0;
#X connect 6 0 7 0;
#X connect 7 0 31 0;
#X connect 7 0 55 0;
#X connect 8 0 4 0;
#X connect 10 0 43 0;
#X connect 12 0 6 1;
#X connect 13 0 6 1;
#X connect 14 0 6 1;
#X connect 15 0 6 1;
#X connect 16 0 6 1;
#X connect 17 0 6 1;
#X connect 26 0 12 0;
#X connect 26 1 13 0;
#X connect 26 2 14 0;
#X connect 26 3 15 0;
#X connect 26 4 16 0;
#X connect 26 5 17 0;
#X connect 27 0 28 0;
#X connect 27 0 54 0;
#X connect 28 0 26 0;
#X connect 29 0 41 0;
#X connect 30 0 33 0;
#X connect 30 0 35 0;
#X connect 30 1 34 0;
#X connect 30 1 36 0;
#X connect 31 0 29 0;
#X connect 32 0 29 0;
#X connect 33 0 32 1;
#X connect 34 0 31 1;
#X connect 35 0 31 1;
#X connect 36 0 32 1;
#X connect 37 0 1 0;
#X connect 39 0 26 0;
#X connect 44 0 30 0;
#X connect 46 0 48 0;
#X connect 48 0 29 1;
#X connect 54 0 56 0;
#X connect 55 0 32 0;
#X connect 55 1 42 0;
#X connect 55 2 10 0;
#X restore 54 293 pd midi-clock-sync-trig;
#X obj 55 206 r \$0-s-time-div-selector;
#X obj 99 233 r \$0-s-trig-bang-selector;
#X obj 145 257 r \$0-s-midi-sync-trig-on-off;
#X obj 555 26 loadbang;
#X msg 555 50 0;
#X obj 17 449 s \$0-show-buff-now;
#X obj 418 109 tap_tempo_7_TH;
#X obj 403 164 metro;
#X obj 499 143 expr 60000/($f1*24);
#X obj 403 203 spigot 1;
#X text 504 126 BPM to MIDI PPQ in Milliseconds;
#X text 430 234 PPQ;
#X obj 101 31 cnv 15 128 50 empty empty empty 20 12 0 14 -162280 -66577
0;
#X obj 109 60 tgl 15 0 empty empty On/Off 17 7 0 10 -191407 -4034 -1
0 1;
#X obj 167 60 bng 15 250 50 0 empty empty TAP_1/4 17 7 0 10 -159808
-1 -1;
#X text 105 32 FAKE MIDI CLOCK;
#X text 103 42 (synced to playback);
#X obj 549 173 r \$0-start-stop-sound-file-player;
#X connect 0 0 26 3;
#X connect 1 0 2 0;
#X connect 1 1 3 0;
#X connect 2 0 26 3;
#X connect 3 0 26 3;
#X connect 26 0 11 0;
#X connect 26 0 20 0;
#X connect 26 0 32 0;
#X connect 26 1 9 0;
#X connect 26 2 8 0;
#X connect 27 0 26 0;
#X connect 28 0 26 1;
#X connect 29 0 26 2;
#X connect 30 0 31 0;
#X connect 33 2 35 0;
#X connect 34 0 36 0;
#X connect 35 0 34 1;
#X connect 36 0 0 0;
#X connect 40 0 34 0;
#X connect 41 0 33 0;
#X connect 44 0 36 1;
#X connect 44 0 1 0;
#X coords 0 -1 1 1 220 140 2 10 10;
#X restore 554 197 pd midi-clock-sync-trig-controller;
#X floatatom 199 810 5 0 0 0 - - -;
#N canvas 519 489 490 464 training_analysis_print-list 0;
#X obj 27 38 inlet;
#X obj 81 200 s \$0-feature-list-training;
#X obj 253 200 s \$0-feature-list-analyze;
#X obj 81 178 spigot 0;
#X obj 253 178 spigot 0;
#X obj 31 363 spigot 0;
#X obj 31 394 print FEATURE-LIST;
#X obj 157 39 inlet;
#X obj 340 44 inlet;
#X msg 157 91 0, f 1;
#X msg 175 91 1, f 1;
#X msg 197 91 0, f 1;
#X msg 215 91 1, f 1;
#X text 26 13 Feature List in;
#X text 341 16 Print on/off (0-1);
#X text 146 16 To Training or Analyzer (0-1);
#X obj 157 60 sel 0 1 2;
#X msg 237 91 0, f 1;
#X connect 0 0 3 0;
#X connect 0 0 4 0;
#X connect 0 0 5 0;
#X connect 3 0 1 0;
#X connect 4 0 2 0;
#X connect 5 0 6 0;
#X connect 7 0 16 0;
#X connect 8 0 5 1;
#X connect 9 0 4 1;
#X connect 10 0 3 1;
#X connect 11 0 3 1;
#X connect 12 0 4 1;
#X connect 16 0 9 0;
#X connect 16 0 10 0;
#X connect 16 1 11 0;
#X connect 16 1 12 0;
#X connect 16 2 17 0;
#X connect 17 0 4 1;
#X connect 17 0 3 1;
#X restore 33 903 pd training_analysis_print-list;
#X obj 216 881 tgl 15 1 empty empty Print 17 7 0 10 -191407 -204786
-1 1 1;
#X obj 124 843 vradio 15 1 0 3 empty empty empty 0 -8 0 10 -191407
-204786 -1 0;
#X text 141 841 timbreID training;
#X text 28 17 timbreID Workspace;
#X obj 848 50 cnv 15 220 140 empty empty timbreID_Workspace_HELP 5
10 0 12 -228856 -66577 0;
#X text 855 165 LOOK HERE FOR TEMPLATES !!!;
#N canvas 301 159 720 839 TEMPLATES 0;
#N canvas 408 50 690 405 single_feature_template 0;
#X obj 23 37 inlet~;
#X obj 113 37 inlet;
#X obj 23 297 outlet;
#X obj 23 125 bfcc~ 1024;
#X text 19 13 Audio IN;
#X text 109 12 Trigger IN;
#X obj 386 184 list split 5;
#X obj 386 205 list split 1;
#X text 470 181 Spit out only 5 first items of list;
#X text 468 204 Truncate first item of list;
#X msg 420 229 list out;
#X msg 386 153 list in;
#X text 388 123 Use this to truncate the list;
#X obj 228 34 inlet;
#X obj 322 305 outlet;
#X text 367 308 Control Blink out;
#X text 20 321 Feature List/Value Output;
#X text 229 9 On/Off Toggle IN (0/1);
#X obj 113 58 spigot 0;
#X connect 0 0 3 0;
#X connect 1 0 18 0;
#X connect 3 0 2 0;
#X connect 6 0 7 0;
#X connect 7 1 10 0;
#X connect 11 0 6 0;
#X connect 13 0 18 1;
#X connect 18 0 3 0;
#X connect 18 0 14 0;
#X restore 132 339 pd single_feature_template;
#N canvas 565 152 886 602 multiple_features_template 0;
#X obj 19 45 inlet~;
#X text 18 19 Audio IN;
#X obj 19 367 list append;
#X obj 82 329 list append;
#X obj 159 45 inlet;
#X obj 159 89 t b b b b b b;
#X obj 19 405 outlet;
#X obj 250 173 specBrightness~ 1024 1200;
#X obj 137 172 bfcc~ 2048 0.25;
#X obj 20 171 attackTime~ 4096;
#X obj 486 257 list split 5;
#X obj 486 278 list split 1;
#X text 570 254 Spit out only 5 first items of list;
#X text 568 277 Truncate first item of list;
#X msg 520 302 list out;
#X msg 486 226 list in;
#X text 488 196 Use this to truncate the list;
#X obj 292 37 inlet;
#X text 156 17 Trigger IN;
#X obj 479 405 outlet;
#X text 527 405 Control Blink Out;
#X text 286 15 On/Off Toggle IN (0/1);
#X text 16 428 Feature List OUTPUT;
#X obj 159 66 spigot 0;
#X connect 0 0 7 0;
#X connect 0 0 8 0;
#X connect 0 0 9 0;
#X connect 2 0 6 0;
#X connect 3 0 2 1;
#X connect 4 0 23 0;
#X connect 5 0 9 0;
#X connect 5 1 8 0;
#X connect 5 2 7 0;
#X connect 7 0 3 1;
#X connect 8 0 3 0;
#X connect 9 0 2 0;
#X connect 10 0 11 0;
#X connect 11 1 14 0;
#X connect 15 0 10 0;
#X connect 17 0 23 1;
#X connect 23 0 5 0;
#X connect 23 0 19 0;
#X restore 133 530 pd multiple_features_template;
#X obj 285 316 tgl 15 0 empty empty ON/OFF 17 7 0 10 -191407 -4034
-1 0 1;
#X obj 304 497 tgl 15 0 empty empty ON/OFF 17 7 0 10 -191407 -4034
-1 0 1;
#X obj 285 362 bng 15 250 50 0 empty empty empty 17 7 0 10 -228856
-258113 -1;
#X obj 304 553 bng 15 250 50 0 empty empty empty 17 7 0 10 -228856
-258113 -1;
#N canvas 0 23 323 105 audio-signal_L-R 0;
#X obj 11 19 r~ \$0-to-analyzer-l;
#X obj 136 19 r~ \$0-to-analyzer-r;
#X obj 11 40 outlet~;
#X obj 136 40 outlet~;
#X connect 0 0 2 0;
#X connect 1 0 3 0;
#X restore 132 206 pd audio-signal_L-R;
#N canvas 0 23 323 105 audio-signal_L-R 0;
#X obj 11 19 r~ \$0-to-analyzer-l;
#X obj 136 19 r~ \$0-to-analyzer-r;
#X obj 11 40 outlet~;
#X obj 136 40 outlet~;
#X connect 0 0 2 0;
#X connect 1 0 3 0;
#X restore 133 395 pd audio-signal_L-R;
#X obj 193 229 r \$0-vol-onset-trig;
#X obj 208 251 r \$0-samp-repeat-trig;
#X obj 203 415 r \$0-vol-onset-trig;
#X obj 218 437 r \$0-samp-repeat-trig;
#X text 314 339 Use this template to create single-feature analyzer
;
#X text 325 529 Use this template to create multi-feature analyzer
;
#N canvas 669 135 834 592 volume-onset-trigger 0;
#X obj 116 23 inlet~;
#X obj 118 475 outlet;
#X obj 92 164 bng 15 250 50 0 empty empty empty 17 7 0 10 -262144 -1
-1;
#X obj 128 48 loadbang;
#X obj 116 120 bark~ 4096 1024 0.5;
#X msg 128 71 minvel 50 \, debounce 200 \, thresh -1 20;
#X obj 271 303 f;
#X obj 301 303 + 1;
#X obj 271 349 mod;
#X obj 286 377 - 1;
#X obj 271 400 sel;
#X msg 315 270 0;
#X obj 434 16 inlet;
#X text 477 13 How often;
#X obj 118 270 spigot;
#X obj 226 270 spigot;
#X msg 246 244 0, f 1;
#X msg 266 244 1, f 1;
#X msg 177 245 1, f 1;
#X msg 157 245 0, f 1;
#X obj 473 90 sel 0;
#X obj 500 122 t f b;
#X obj 434 41 moses 0;
#X obj 473 67 change;
#X obj 225 185 spigot 0;
#X msg 313 140 0, f 2;
#X msg 270 140 1, f 2;
#X obj 270 19 inlet;
#X text 314 19 do it;
#X obj 267 502 s \$0-show-buff-now;
#X obj 563 470 + 1;
#X obj 563 493 outlet;
#X obj 479 494 outlet;
#X text 162 18 Audio IN;
#X text 143 91 Adjust Detection Settings;
#X text 492 513 active or not monitor;
#X text 613 492 Counter Monitor Outlet;
#X text 118 499 TRIGGER Outlet;
#X connect 0 0 4 0;
#X connect 3 0 5 0;
#X connect 4 0 2 0;
#X connect 4 0 14 0;
#X connect 4 0 24 0;
#X connect 5 0 4 0;
#X connect 6 0 7 0;
#X connect 6 0 8 0;
#X connect 7 0 6 1;
#X connect 8 0 10 0;
#X connect 8 0 30 0;
#X connect 9 0 10 1;
#X connect 10 0 11 0;
#X connect 10 0 25 0;
#X connect 11 0 6 1;
#X connect 12 0 22 0;
#X connect 14 0 1 0;
#X connect 14 0 29 0;
#X connect 15 0 6 0;
#X connect 15 0 1 0;
#X connect 15 0 29 0;
#X connect 16 0 15 1;
#X connect 17 0 15 1;
#X connect 18 0 14 1;
#X connect 19 0 14 1;
#X connect 20 0 18 0;
#X connect 20 0 16 0;
#X connect 20 1 21 0;
#X connect 21 0 9 0;
#X connect 21 0 8 1;
#X connect 21 1 17 0;
#X connect 21 1 19 0;
#X connect 21 1 11 0;
#X connect 22 1 23 0;
#X connect 23 0 20 0;
#X connect 24 0 15 0;
#X connect 25 0 24 1;
#X connect 25 0 32 0;
#X connect 25 0 31 0;
#X connect 26 0 24 1;
#X connect 26 0 32 0;
#X connect 27 0 26 0;
#X connect 30 0 31 0;
#X restore 131 78 pd volume-onset-trigger;
#N canvas 507 186 865 568 sample-accurate-repeated-trigger 0;
#X obj 201 30 inlet;
#X obj 42 472 outlet;
#X obj 231 279 f;
#X obj 261 279 + 1;
#X obj 231 325 mod;
#X obj 246 353 - 1;
#X obj 231 376 sel;
#X msg 304 250 0, f 1;
#X msg 162 193 0, f 1;
#X msg 201 188 1, f 1;
#X obj 482 31 inlet;
#X obj 482 171 t b f;
#X obj 468 497 outlet;
#X text 243 29 bang to start;
#X obj 610 28 inlet;
#X obj 201 223 metro 22400 1 samp;
#X obj 111 159 spigot;
#X obj 201 159 spigot;
#X obj 223 84 sel 1;
#X obj 250 106 bang;
#X msg 221 133 0, f 1;
#X msg 241 133 1, f 1;
#X msg 171 134 1, f 1;
#X msg 151 134 0, f 1;
#X text 248 162 Bypass metro if only 1 iteration;
#X obj 172 451 s \$0-show-buff-now;
#X obj 498 452 outlet;
#X obj 498 431 + 1;
#X text 547 451 Counter Monitor Outlet;
#X text 515 497 In Progress Monitor Outlet;
#X text 44 496 TRIG OUT;
#X text 660 27 Repetition Speed in Samples;
#X text 521 31 How Often;
#X connect 0 0 16 0;
#X connect 0 0 17 0;
#X connect 2 0 3 0;
#X connect 2 0 4 0;
#X connect 2 0 27 0;
#X connect 3 0 2 1;
#X connect 4 0 6 0;
#X connect 5 0 6 1;
#X connect 6 0 7 0;
#X connect 6 0 8 0;
#X connect 7 0 2 1;
#X connect 8 0 12 0;
#X connect 8 0 15 0;
#X connect 9 0 12 0;
#X connect 9 0 15 0;
#X connect 10 0 11 0;
#X connect 10 0 18 0;
#X connect 11 0 7 0;
#X connect 11 1 5 0;
#X connect 11 1 4 1;
#X connect 14 0 15 1;
#X connect 15 0 2 0;
#X connect 15 0 1 0;
#X connect 15 0 25 0;
#X connect 16 0 1 0;
#X connect 16 0 25 0;
#X connect 17 0 9 0;
#X connect 18 0 22 0;
#X connect 18 0 20 0;
#X connect 18 1 19 0;
#X connect 19 0 21 0;
#X connect 19 0 23 0;
#X connect 20 0 17 1;
#X connect 21 0 17 1;
#X connect 22 0 16 1;
#X connect 22 0 26 0;
#X connect 23 0 16 1;
#X connect 23 0 26 0;
#X connect 27 0 26 0;
#X restore 130 112 pd sample-accurate-repeated-trigger;
#X text 284 78 Use to build volume onset trigger;
#X text 354 111 Use to build repeated trigger (sample accurate);
#X text 259 204 Receive Audio in this patch from Input/Play;
#X text 261 393 Receive Audio in this patch from Input/Play;
#X text 350 237 Receive Trigger i this patch;
#X text 349 420 Receive Trigger i this patch;
#X text 25 82 TRIGGERS;
#X text 23 212 ANALYZERS;
#X text 21 11 TEMPLATES;
#N canvas 544 251 569 549 feature-list-builder 0;
#X obj 187 194 list prepend;
#X obj 220 220 t l;
#X obj 187 354 spigot 0;
#X obj 187 375 t l b;
#X msg 254 327 1, f 1;
#X msg 274 327 0, f 1;
#X obj 54 208 f;
#X obj 54 296 mod;
#X obj 93 208 + 1;
#X obj 54 330 select;
#X obj 87 307 - 1;
#X msg 69 178 0, f 2;
#X obj 27 130 t l b;
#X obj 27 13 inlet;
#X obj 187 462 outlet;
#X obj 398 52 bang;
#X obj 199 12 inlet;
#X obj 398 19 inlet;
#X obj 124 253 loadbang;
#X msg 124 274 1;
#X text 188 484 Compiled Features Lists OUTLET;
#X text 244 13 HOW MANY FEATURE LISTS;
#X text 440 16 RESET;
#X text 66 13 FEATURE LISTS INPUT;
#X obj 397 461 outlet;
#X text 399 486 DONE monitor Out;
#X obj 397 438 bang;
#X connect 0 0 1 0;
#X connect 0 0 2 0;
#X connect 1 0 0 1;
#X connect 2 0 3 0;
#X connect 3 0 14 0;
#X connect 3 0 26 0;
#X connect 3 1 5 0;
#X connect 3 1 0 1;
#X connect 4 0 2 1;
#X connect 5 0 2 1;
#X connect 6 0 7 0;
#X connect 6 0 8 0;
#X connect 7 0 9 0;
#X connect 8 0 6 1;
#X connect 9 0 11 0;
#X connect 9 0 4 0;
#X connect 10 0 9 1;
#X connect 11 0 6 1;
#X connect 12 0 0 0;
#X connect 12 1 6 0;
#X connect 13 0 12 0;
#X connect 15 0 0 1;
#X connect 15 0 11 0;
#X connect 16 0 10 0;
#X connect 16 0 7 1;
#X connect 16 0 11 0;
#X connect 17 0 15 0;
#X connect 18 0 19 0;
#X connect 19 0 10 0;
#X connect 19 0 7 1;
#X connect 26 0 24 0;
#X restore 168 630 pd feature-list-builder;
#X text 23 633 FEATURE LIST BUILDER;
#X obj 222 273 r \$0-midi-clock-trig;
#X obj 232 459 r \$0-midi-clock-trig;
#X text 128 149 [MIDI SYNC TRIG];
#X text 295 141 Copy this template from main patcher only into other
patches to avoid array confusion....;
#X connect 0 1 4 0;
#X connect 1 1 5 0;
#X connect 2 0 0 2;
#X connect 3 0 1 2;
#X connect 6 0 0 0;
#X connect 7 0 1 0;
#X connect 8 0 0 1;
#X connect 9 0 0 1;
#X connect 10 0 1 1;
#X connect 11 0 1 1;
#X connect 27 0 0 1;
#X connect 28 0 1 1;
#X restore 856 148 pd TEMPLATES;
#N canvas 817 23 579 961 HOW-TO-USE-THIS-PATCH_1 0;
#X text 19 26 AUDIO_INPUT/SOUNDFILE_PLAYER;
#X text 59 46 Use this controller to play back looped audio files (.wav
ony!!!) or to use line/microphone input of your device as ausdio signal
source.;
#X text 59 116 Audio can be sent to analyzing abstractions via:;
#N canvas 0 23 323 105 audio-signal_L-R 0;
#X obj 11 19 r~ \$0-to-analyzer-l;
#X obj 136 19 r~ \$0-to-analyzer-r;
#X obj 11 40 outlet~;
#X obj 136 40 outlet~;
#X connect 0 0 2 0;
#X connect 1 0 3 0;
#X restore 375 115 pd audio-signal_L-R;
#X text 19 157 ANALYZER_BUFFER;
#X text 59 186 This abstraction just lets you see a 1024 sample large
block of the audio buffer \, that has currently been analyzed.;
#X text 59 216 The block size and other parameter could be changed
from within this abstraction.;
#X text 59 247 Every analyzer abstraction sends a bang to the buffer
visualizer.;
#X text 59 347 Volume_Onset_Trigger;
#X text 59 527 Sample_Accurate_Repeated_Trigger;
#X text 59 718 MIDI_Synced_Trigger;
#X text 19 307 TRIGGER GENERATORS;
#X text 59 413 DO_IT start this trigger to work. Then it trigger for
the given amount of peaks detected.;
#X text 59 442 A value of [0] enables continuouse triggering at every
peak detected.;
#X text 59 473 You can use the [How_often] value together with the
list-builder [How_Many] to compile a list of features measured at a
given number of amplitude peaks.;
#X text 59 377 This sends a trigger to the analyzers on every amplitufe
peak. The parameters of the peak detectio can be changed inside the
abstraction.;
#X text 59 548 This sends repeated triggers to the analyzers at the
given speed in samples. 48000 samples is 1 second (at 48000 sampling
rate). The presets provides some often needed block sizes.;
#X text 60 666 You can use the [How_often] value together with the
list-builder [How_Many] to compile a list of features measured at a
given number of amplitude peaks.;
#X text 59 748 This sends out triggers to all analyzers synced to an
incoming MIDI clock signal. The abstraction reads every incoming MIDI
realtime PPQ message and resets its counter on incoming MIDI start
and MIDI stop messages.;
#X text 59 808 Choose with the timing devider \, at what fraction of
one bar of 96 PPQs the triggers shoud be sent out.;
#X text 59 838 TRIG SYNC set to [PPQ] sends out a trigger at every
counted PPQ instantly. [CLOCK] waits with sending out the trigger \,
until a (quite) stable tempo was measured and MIDI PPQ 1 indicates
the beginning of a new bar (use this option for real MIDI clock sync
and musical sync-purpose).;
#X text 60 608 [How_often] determins the number of triggers sent out
in total. When set to 1 the patch works as a single manual trigger.
Is Endless turned on \, it sends a trigger in the given speed until
swichted off.;
#X restore 856 88 pd HOW-TO-USE-THIS-PATCH_1;
#N canvas 858 23 579 519 HOW-TO-USE-THIS-PATCH_2 0;
#X text 19 26 FEATURE EXTRACTION ABSTRACTIONS;
#X text 59 46 Use the templates provided to build your feature extraction
abstractions of your needs.;
#X text 59 76 Every template features inlets but also receive obejcts
for audio and trigger \, that work within this patcher without chords.
;
#X text 19 156 FEATURE LIST BUILDER;
#X text 59 176 Use this abstraction to compile lists of multiple feature
extractions that have been taken.;
#X text 59 206 Initially it is set to 1 \, so it passes out every list
of extracted featrues \, that is sent to its input.;
#X text 59 276 This can be used very well together with the [How_often]
values of the trigger objects.;
#X text 59 306 Use [RESET] to initiale the whole abstraction if you
confused yourself with the counting...;
#X text 59 236 Set a higher value with [How_many] to collect as many
feature extraction lists as wished and output a compiled list \, after
the last one has been received.;
#X text 19 386 TRAINING_ANALYSIS_PRINT-list SELECTOR;
#X text 59 416 By toggeling the radio boxes \, decide if the feature
list is sent to [timbreID] for training or for analysis and if you
want to print out the list into the PD window.;
#X restore 856 108 pd HOW-TO-USE-THIS-PATCH_2;
#N canvas 394 134 899 624 cluster 0;
#X msg 21 179 cluster 1;
#X obj 24 529 s \$0-feature-list-training;
#X msg 99 216 uncluster;
#X msg 31 152 set cluster \$1;
#X obj 10 10 cnv 15 250 80 empty empty Cluster 5 10 0 12 -228856 -66577
0;
#X floatatom 16 33 6 1 20 1 Instances - -;
#X obj 16 69 bng 15 250 50 0 empty empty Uncluster 17 7 0 10 -191407
-4034 -1;
#X obj 16 51 bng 15 250 50 0 empty empty Cluster 17 7 0 10 -191407
-4034 -1;
#X text 390 16 Choose a Feature list \, and read or write it into an
external folder for later use.;
#X text 390 47 No overwrite protection!!!;
#X floatatom 218 16 5 0 127 0 Preset - -;
#X obj 201 51 bng 15 250 50 0 empty empty empty 17 7 0 10 -204786 -1
-1;
#X obj 201 70 bng 15 250 50 0 empty empty empty 17 7 0 10 -261234 -1
-1;
#X text 155 70 WRITE;
#X obj 567 78 loadbang;
#X msg 567 100 0;
#X obj 235 51 bng 15 250 50 0 empty empty empty 17 7 0 10 -204786 -1
-1;
#X obj 235 70 bng 15 250 50 0 empty empty empty 17 7 0 10 -261234 -1
-1;
#X msg 313 476 write_clusters_text ./clusters-txt/clusters_0.txt;
#X obj 340 141 f;
#X obj 403 216 f;
#X obj 473 289 f;
#X obj 538 381 f;
#X obj 313 118 t b b;
#X obj 376 192 t b b;
#X obj 446 267 t b b;
#X text 227 33 .txt;
#X text 161 52 READ;
#X text 188 34 .clu;
#X msg 342 165 set read_clusters ./clusters-clu/clusters_\$1.clu;
#X msg 403 240 set write_clusters ./clusters-clu/clusters_\$1.clu;
#X msg 473 312 set read_clusters_text ./clusters-txt/clusters_\$1.txt
;
#X msg 538 403 set write_clusters_text ./clusters-txt/clusters_\$1.txt
;
#X obj 511 358 t b b;
#X connect 0 0 1 0;
#X connect 2 0 1 0;
#X connect 3 0 0 0;
#X connect 5 0 3 0;
#X connect 6 0 2 0;
#X connect 7 0 0 0;
#X connect 10 0 19 1;
#X connect 10 0 20 1;
#X connect 10 0 21 1;
#X connect 10 0 22 1;
#X connect 11 0 23 0;
#X connect 12 0 24 0;
#X connect 14 0 15 0;
#X connect 15 0 10 0;
#X connect 16 0 25 0;
#X connect 17 0 33 0;
#X connect 18 0 1 0;
#X connect 19 0 29 0;
#X connect 20 0 30 0;
#X connect 21 0 31 0;
#X connect 22 0 32 0;
#X connect 23 0 18 0;
#X connect 23 1 19 0;
#X connect 24 0 18 0;
#X connect 24 1 20 0;
#X connect 25 0 18 0;
#X connect 25 1 21 0;
#X connect 29 0 18 0;
#X connect 30 0 18 0;
#X connect 31 0 18 0;
#X connect 32 0 18 0;
#X connect 33 0 18 0;
#X connect 33 1 22 0;
#X coords 0 -1 1 1 250 80 2 10 10;
#X restore 786 476 pd cluster;
#N canvas 999 23 417 168 timbreID-monitor 0;
#X obj 10 10 cnv 15 250 80 empty empty timbreID 5 10 0 12 -228856 -66577
0;
#X obj 16 35 nbx 3 28 -1e+37 1e+37 0 0 \$0-s-timbreID-monitor \$0-r-timbreID-monitor
ID 98 15 0 28 -191407 -1 -1 0 256;
#X msg 224 105 clear;
#X obj 224 128 s \$0-feature-list-training;
#X obj 207 15 bng 15 250 50 0 empty empty CLEAR 17 7 0 10 -261234 -258113
-1;
#X floatatom 16 68 8 0 0 1 - #0-r-timbreID-nearest-match-dist #0-s-timbreID-nearest-match-dist
;
#X text 68 68 Dist. to nearest match;
#X connect 2 0 3 0;
#X connect 4 0 2 0;
#X coords 0 -1 1 1 250 80 1 10 10;
#X restore 786 391 pd timbreID-monitor;
#N canvas 330 279 1113 734 audio-features-realtime 0;
#N canvas 0 22 450 300 (subpatch) 0;
#X array mag-spec-graph 1025 float 0;
#X coords 0 0.25 1024 0 200 140 1 0 0;
#X restore 293 102 graph;
#N canvas 0 22 450 300 (subpatch) 0;
#X array barkspec-graph 50 float 0;
#X coords 0 1 49 0 200 140 1 0 0;
#X restore 523 102 graph;
#N canvas 0 22 450 300 (subpatch) 0;
#X array bfcc-graph 50 float 0;
#X coords 0 1 49 -1 200 140 1 0 0;
#X restore 523 312 graph;
#N canvas 0 22 450 300 (subpatch) 0;
#X array cepstrum-graph 1025 float 0;
#X coords 0 1 1024 -0.6 200 140 1 0 0;
#X restore 63 312 graph;
#N canvas 0 22 450 300 (subpatch) 0;
#X array dct-graph 2048 float 0;
#X coords 0 1 2047 -1 200 140 1 0 0;
#X restore 293 312 graph;
#N canvas 62 226 547 541 time-domain-features 0;
#X obj 41 332 nbx 5 32 -1e+37 1e+37 0 0 empty zero-crossing-display
empty 0 -8 0 32 -262144 -1 -1 0 256;
#X text 39 312 Zero-crossing;
#X obj 271 172 nbx 6 32 -1e+37 1e+37 0 0 empty max-sample-display empty
0 -8 0 32 -262144 -1 -1 0 256;
#X text 269 152 Max sample;
#X obj 41 172 nbx 6 32 -1e+37 1e+37 0 0 empty min-sample-display empty
0 -8 0 32 -262144 -1 -1 0 256;
#X text 39 152 Min sample;
#X text 39 42 TIME DOMAIN FEATURES:;
#X obj 41 92 nbx 5 32 -1e+37 1e+37 0 0 empty peak-sample-display empty
0 -8 0 32 -262144 -1 -1 0 256;
#X text 39 72 Peak sample;
#X obj 271 232 nbx 6 32 -1e+37 1e+37 0 0 empty max-sample-delta-display
empty 0 -8 0 32 -262144 -1 -1 0 256;
#X obj 41 232 nbx 6 32 -1e+37 1e+37 0 0 empty min-sample-delta-display
empty 0 -8 0 32 -262144 -1 -1 0 256;
#X text 269 212 Max sample delta;
#X text 39 212 Min sample delta;
#X obj 41 422 nbx 6 32 -1e+37 1e+37 0 0 empty wave-slope-display empty
0 -8 0 32 -262144 -1 -1 0 256;
#X text 39 402 Waveform slope;
#N canvas 683 32 565 665 time-domain-analyses 0;
#X obj 277 482 r~ input-signal;
#X obj 277 541 zeroCrossing~ 2048;
#X obj 295 510 r analysis-tick;
#X obj 27 32 r~ input-signal;
#X obj 45 60 r analysis-tick;
#X obj 277 567 s zero-crossing-display;
#X obj 267 32 r~ input-signal;
#X obj 285 60 r analysis-tick;
#X obj 267 91 peakSample~ 2048;
#X obj 267 117 s peak-sample-display;
#X obj 27 91 sampleBuffer~ 2048;
#X obj 27 117 list prepend 0;
#X obj 27 142 s sample-buffer-graph;
#X obj 27 482 r~ input-signal;
#X obj 45 510 r analysis-tick;
#X obj 27 541 waveSlope~ 2048;
#N canvas 408 291 635 296 graph-slope 0;
#X obj 54 31 inlet;
#X msg 458 138 1;
#X obj 323 123 / 2;
#X obj 323 91 t f b;
#X obj 83 91 t f b;
#X obj 83 123 / -2;
#X msg 218 138 0;
#X obj 83 163 tabwrite wave-slope-graph;
#X obj 323 163 tabwrite wave-slope-graph;
#X obj 54 206 s wave-slope-display;
#X connect 0 0 4 0;
#X connect 0 0 3 0;
#X connect 0 0 9 0;
#X connect 1 0 8 1;
#X connect 2 0 8 0;
#X connect 3 0 2 0;
#X connect 3 1 1 0;
#X connect 4 0 5 0;
#X connect 4 1 6 0;
#X connect 5 0 7 0;
#X connect 6 0 7 1;
#X coords 0 296 1 295 250 70 0;
#X restore 27 571 pd graph-slope;
#X obj 27 192 r~ input-signal;
#X obj 45 220 r analysis-tick;
#X obj 267 192 r~ input-signal;
#X obj 285 220 r analysis-tick;
#X obj 27 251 minSample~ 2048;
#X obj 27 277 s min-sample-display;
#X obj 267 251 maxSample~ 2048;
#X obj 267 277 s max-sample-display;
#X obj 27 342 r~ input-signal;
#X obj 45 370 r analysis-tick;
#X obj 267 342 r~ input-signal;
#X obj 285 370 r analysis-tick;
#X obj 27 401 minSampleDelta~ 2048;
#X obj 267 401 maxSampleDelta~ 2048;
#X obj 267 427 s max-sample-delta-display;
#X obj 27 427 s min-sample-delta-display;
#X connect 0 0 1 0;
#X connect 1 0 5 0;
#X connect 2 0 1 0;
#X connect 3 0 10 0;
#X connect 4 0 10 0;
#X connect 6 0 8 0;
#X connect 7 0 8 0;
#X connect 8 0 9 0;
#X connect 10 0 11 0;
#X connect 11 0 12 0;
#X connect 13 0 15 0;
#X connect 14 0 15 0;
#X connect 15 0 16 0;
#X connect 17 0 21 0;
#X connect 18 0 21 0;
#X connect 19 0 23 0;
#X connect 20 0 23 0;
#X connect 21 0 22 0;
#X connect 23 0 24 0;
#X connect 25 0 29 0;
#X connect 26 0 29 0;
#X connect 27 0 30 0;
#X connect 28 0 30 0;
#X connect 29 0 32 0;
#X connect 30 0 31 0;
#X restore 271 92 pd time-domain-analyses;
#N canvas 0 50 450 278 (subpatch) 0;
#X array wave-slope-graph 2 float 1;
#A 0 -0 0;
#X coords 0 0.1 1 -0.1 200 140 1 0 0;
#X restore 271 332 graph;
#X restore 63 502 pd time-domain-features;
#N canvas 0 22 450 300 (subpatch) 0;
#X array sample-buffer-graph 2048 float 0;
#X coords 0 1 2047 -1 200 140 1 0 0;
#X restore 63 102 graph;
#N canvas 75 174 947 428 spectrum-features 0;
#X obj 39 83 nbx 5 32 -1e+37 1e+37 0 0 empty brightness-display empty
0 -8 0 32 -262144 -1 -1 -1 256;
#X text 37 63 Brightness;
#X obj 259 83 nbx 5 32 -1e+37 1e+37 0 0 empty centroid-display empty
0 -8 0 32 -262144 -1 -1 -1 256;
#X obj 479 83 nbx 5 32 -1e+37 1e+37 0 0 empty flatness-display empty
0 -8 0 32 -262144 -1 -1 -1 256;
#X obj 719 83 nbx 5 32 -1e+37 1e+37 0 0 empty flux-display empty 0
-8 0 32 -262144 -1 -1 0 256;
#X text 257 63 Centroid;
#X text 477 63 Flatness;
#X text 717 63 Flux;
#X obj 719 173 nbx 5 32 -1e+37 1e+37 0 0 empty kurtosis-display empty
0 -8 0 32 -262144 -1 -1 -1 256;
#X obj 39 263 nbx 5 32 -1e+37 1e+37 0 0 empty rolloff-display empty
0 -8 0 32 -262144 -1 -1 22400 256;
#X obj 259 263 nbx 5 32 -1e+37 1e+37 0 0 empty skewness-display empty
0 -8 0 32 -262144 -1 -1 -1 256;
#X obj 719 263 nbx 5 32 -1e+37 1e+37 0 0 empty spread-display empty
0 -8 0 32 -262144 -1 -1 -1 256;
#X text 717 153 Kurtosis;
#X text 37 243 Rolloff;
#X text 257 243 Skewness;
#X text 717 243 Spread;
#X text 477 153 Irregularity;
#X obj 479 173 nbx 5 32 -1e+37 1e+37 0 0 empty irreg-display empty
0 -8 0 32 -262144 -1 -1 -1 256;
#X obj 479 263 nbx 7 32 -1e+37 1e+37 0 0 empty spec-slope-display empty
0 -8 0 32 -262144 -1 -1 0 256;
#X text 477 243 Slope;
#X text 37 33 SPECTRUM FEATURES:;
#X obj 259 173 nbx 5 32 -1e+37 1e+37 0 0 empty inharmonicity-display
empty 0 -8 0 32 -262144 -1 -1 -1 256;
#X obj 39 173 nbx 5 32 -1e+37 1e+37 0 0 empty harmonicity-display empty
0 -8 0 32 -262144 -1 -1 -1 256;
#X text 37 153 Harmonicity;
#X text 257 153 Inharmonicity;
#N canvas 320 83 1027 596 spectrum-analyses 0;
#X obj 335 440 r analysis-tick;
#X obj 815 440 r analysis-tick;
#X obj 47 52 r~ input-signal;
#X obj 297 52 r~ input-signal;
#X obj 547 52 r~ input-signal;
#X obj 787 52 r~ input-signal;
#X obj 777 242 r~ input-signal;
#X obj 47 412 r~ input-signal;
#X obj 297 412 r~ input-signal;
#X obj 777 412 r~ input-signal;
#X obj 547 242 r~ input-signal;
#X obj 787 121 specFlux~ 2048;
#X obj 547 121 specFlatness~ 2048;
#X obj 297 121 specCentroid~ 2048;
#X obj 47 121 specBrightness~ 2048;
#X obj 777 311 specKurtosis~ 2048;
#X obj 47 481 specRolloff~ 2048;
#X obj 297 481 specSkewness~ 2048;
#X obj 777 481 specSpread~ 2048;
#X obj 547 312 specIrregularity~ 2048;
#X obj 95 80 r analysis-tick;
#X obj 345 80 r analysis-tick;
#X obj 595 80 r analysis-tick;
#X obj 825 80 r analysis-tick;
#X obj 85 440 r analysis-tick;
#X obj 587 272 r analysis-tick;
#X obj 825 270 r analysis-tick;
#X obj 47 147 s brightness-display;
#X obj 297 147 s centroid-display;
#X obj 547 147 s flatness-display;
#X obj 787 147 s flux-display;
#X obj 777 340 s kurtosis-display;
#X obj 47 242 r~ input-signal;
#X obj 87 272 r analysis-tick;
#X obj 47 312 specHarmonicity~ 2048;
#X obj 47 338 s harmonicity-display;
#X obj 297 340 s inharmonicity-display;
#X obj 547 338 s irreg-display;
#X obj 585 440 r analysis-tick;
#X obj 547 412 r~ input-signal;
#X obj 777 510 s spread-display;
#X obj 297 510 s skewness-display;
#X obj 47 510 s rolloff-display;
#X obj 547 481 specSlope~ 2048;
#X obj 547 511 s spec-slope-display;
#X connect 0 0 17 0;
#X connect 1 0 18 0;
#X connect 2 0 14 0;
#X connect 3 0 13 0;
#X connect 4 0 12 0;
#X connect 5 0 11 0;
#X connect 6 0 15 0;
#X connect 7 0 16 0;
#X connect 8 0 17 0;
#X connect 9 0 18 0;
#X connect 10 0 19 0;
#X connect 11 0 30 0;
#X connect 12 0 29 0;
#X connect 13 0 28 0;
#X connect 14 0 27 0;
#X connect 15 0 31 0;
#X connect 16 0 42 0;
#X connect 17 0 41 0;
#X connect 18 0 40 0;
#X connect 19 0 37 0;
#X connect 20 0 14 0;
#X connect 21 0 13 0;
#X connect 22 0 12 0;
#X connect 23 0 11 0;
#X connect 24 0 16 0;
#X connect 25 0 19 0;
#X connect 26 0 15 0;
#X connect 32 0 34 0;
#X connect 33 0 34 0;
#X connect 34 0 35 0;
#X connect 34 1 36 0;
#X connect 38 0 43 0;
#X connect 39 0 43 0;
#X connect 43 0 44 0;
#X restore 39 343 pd spectrum-analyses;
#X restore 63 532 pd spectrum-features;
#N canvas 639 270 612 301 init 0;
#X obj 236 145 s~ input-signal;
#X obj 45 62 loadbang;
#X obj 410 206 metro 23.22;
#X obj 410 230 s analysis-tick;
#X obj 45 87 t b b b b;
#X obj 135 127 s lb1;
#X obj 115 157 s lb2;
#X obj 95 187 s lb3;
#X obj 410 176 r lb3;
#X obj 236 107 hip~ 5;
#X obj 324 32 declare -lib timbreID/timbreIDLib;
#N canvas 0 23 323 105 audio-signal_L-R 0;
#X obj 11 19 r~ \$0-to-analyzer-l;
#X obj 136 19 r~ \$0-to-analyzer-r;
#X obj 11 40 outlet~;
#X obj 136 40 outlet~;
#X connect 0 0 2 0;
#X connect 1 0 3 0;
#X restore 236 72 pd audio-signal_L-R;
#X connect 1 0 4 0;
#X connect 2 0 3 0;
#X connect 4 1 7 0;
#X connect 4 2 6 0;
#X connect 4 3 5 0;
#X connect 8 0 2 0;
#X connect 9 0 0 0;
#X connect 11 0 9 0;
#X restore 63 472 pd init;
#N canvas 216 108 1006 560 multi-dimensional-feature-analyses 0;
#X obj 57 164 list prepend 0;
#X obj 57 187 s mag-spec-graph;
#X obj 317 164 list prepend 0;
#X obj 557 364 list prepend 0;
#X obj 557 387 s bfcc-graph;
#X obj 317 187 s barkspec-graph;
#X obj 127 396 list prepend 0;
#X obj 127 419 s cepstrum-graph;
#X obj 57 141 magSpec~ 2048;
#X obj 57 72 r~ input-signal;
#X obj 317 72 r~ input-signal;
#X obj 557 272 r~ input-signal;
#X obj 57 272 r~ input-signal;
#X obj 557 341 bfcc~ 2048 0.25;
#X obj 57 341 cepstrum~ 2048;
#X obj 125 100 r analysis-tick;
#X obj 365 100 r analysis-tick;
#X obj 605 300 r analysis-tick;
#X obj 85 300 r analysis-tick;
#X obj 317 141 barkSpec~ 2048 0.5;
#X obj 57 366 t b l;
#X msg 57 453 clip -0.6 1;
#X obj 57 478 tabletool cepstrum-graph;
#X obj 317 364 list prepend 0;
#X obj 317 272 r~ input-signal;
#X obj 365 300 r analysis-tick;
#X obj 317 387 s dct-graph;
#X obj 317 341 dct~ 2048;
#X obj 557 164 list prepend 0;
#X obj 557 72 r~ input-signal;
#X obj 605 100 r analysis-tick;
#X obj 557 187 s melspec-graph;
#X obj 557 141 melSpec~ 2048;
#X obj 777 364 list prepend 0;
#X obj 777 272 r~ input-signal;
#X obj 825 300 r analysis-tick;
#X obj 777 341 mfcc~ 2048;
#X obj 777 387 s mfcc-graph;
#X obj 777 184 list prepend 0;
#X obj 777 32 r~ input-signal;
#X obj 864 121 r analysis-tick;
#X obj 777 161 chroma~ 4096;
#X obj 777 207 s chroma-graph;
#X obj 846 63 r lb1;
#X msg 846 87 normalize 1;
#X connect 0 0 1 0;
#X connect 2 0 5 0;
#X connect 3 0 4 0;
#X connect 6 0 7 0;
#X connect 8 0 0 0;
#X connect 9 0 8 0;
#X connect 10 0 19 0;
#X connect 11 0 13 0;
#X connect 12 0 14 0;
#X connect 13 0 3 0;
#X connect 14 0 20 0;
#X connect 15 0 8 0;
#X connect 16 0 19 0;
#X connect 17 0 13 0;
#X connect 18 0 14 0;
#X connect 19 0 2 0;
#X connect 20 0 21 0;
#X connect 20 1 6 0;
#X connect 21 0 22 0;
#X connect 23 0 26 0;
#X connect 24 0 27 0;
#X connect 25 0 27 0;
#X connect 27 0 23 0;
#X connect 28 0 31 0;
#X connect 29 0 32 0;
#X connect 30 0 32 0;
#X connect 32 0 28 0;
#X connect 33 0 37 0;
#X connect 34 0 36 0;
#X connect 35 0 36 0;
#X connect 36 0 33 0;
#X connect 38 0 42 0;
#X connect 39 0 41 0;
#X connect 40 0 41 0;
#X connect 41 0 38 0;
#X connect 43 0 44 0;
#X connect 44 0 41 0;
#X restore 63 252 pd multi-dimensional-feature-analyses;
#X text 64 65 MULTI-DIMENSIONAL FEATURES:;
#X text 721 596 timbreID - William Brent 2017;
#N canvas 53 154 947 428 Bark-spectrum-features 0;
#X obj 39 83 nbx 5 32 -1e+37 1e+37 0 0 empty bark-brightness-display
empty 0 -8 0 32 -262144 -1 -1 -1 256;
#X text 37 63 Brightness;
#X obj 259 83 nbx 5 32 -1e+37 1e+37 0 0 empty bark-centroid-display
empty 0 -8 0 32 -262144 -1 -1 -1 256;
#X obj 479 83 nbx 5 32 -1e+37 1e+37 0 0 empty bark-flatness-display
empty 0 -8 0 32 -262144 -1 -1 -1 256;
#X obj 719 83 nbx 5 32 -1e+37 1e+37 0 0 empty bark-flux-display empty
0 -8 0 32 -262144 -1 -1 0 256;
#X text 257 63 Centroid;
#X text 477 63 Flatness;
#X text 717 63 Flux;
#X obj 259 173 nbx 5 32 -1e+37 1e+37 0 0 empty bark-kurtosis-display
empty 0 -8 0 32 -262144 -1 -1 -1 256;
#X obj 479 173 nbx 5 32 -1e+37 1e+37 0 0 empty bark-rolloff-display
empty 0 -8 0 32 -262144 -1 -1 0 256;
#X obj 719 173 nbx 5 32 -1e+37 1e+37 0 0 empty bark-skewness-display
empty 0 -8 0 32 -262144 -1 -1 -1 256;
#X obj 479 263 nbx 5 32 -1e+37 1e+37 0 0 empty bark-spread-display
empty 0 -8 0 32 -262144 -1 -1 -1 256;
#X text 257 153 Kurtosis;
#X text 477 153 Rolloff;
#X text 717 153 Skewness;
#X text 477 243 Spread;
#X text 37 153 Irregularity;
#X obj 39 173 nbx 5 32 -1e+37 1e+37 0 0 empty bark-irreg-display empty
0 -8 0 32 -262144 -1 -1 -1 256;
#X obj 39 263 nbx 7 32 -1e+37 1e+37 0 0 empty bark-spec-slope-display
empty 0 -8 0 32 -262144 -1 -1 0 256;
#X text 37 243 Slope;
#X text 37 33 BARK SPECTRUM FEATURES:;
#N canvas 320 83 1027 596 bark-spectrum-analyses 0;
#X obj 835 270 r analysis-tick;
#X obj 315 440 r analysis-tick;
#X obj 47 52 r~ input-signal;
#X obj 297 52 r~ input-signal;
#X obj 547 52 r~ input-signal;
#X obj 787 52 r~ input-signal;
#X obj 277 242 r~ input-signal;
#X obj 547 242 r~ input-signal;
#X obj 797 242 r~ input-signal;
#X obj 277 412 r~ input-signal;
#X obj 47 242 r~ input-signal;
#X obj 95 80 r analysis-tick;
#X obj 345 80 r analysis-tick;
#X obj 595 80 r analysis-tick;
#X obj 825 80 r analysis-tick;
#X obj 585 270 r analysis-tick;
#X obj 87 272 r analysis-tick;
#X obj 325 270 r analysis-tick;
#X obj 85 440 r analysis-tick;
#X obj 47 412 r~ input-signal;
#X obj 47 121 barkSpecBrightness~ 2048;
#X obj 297 121 barkSpecCentroid~ 2048;
#X obj 547 121 barkSpecFlatness~ 2048;
#X obj 787 121 barkSpecFlux~ 2048;
#X obj 277 311 barkSpecKurtosis~ 2048;
#X obj 47 312 barkSpecIrregularity~ 2048;
#X obj 547 311 barkSpecRolloff~ 2048;
#X obj 797 311 barkSpecSkewness~ 2048;
#X obj 47 481 barkSpecSlope~ 2048;
#X obj 277 481 barkSpecSpread~ 2048;
#X obj 47 147 s bark-brightness-display;
#X obj 297 147 s bark-centroid-display;
#X obj 547 147 s bark-flatness-display;
#X obj 787 147 s bark-flux-display;
#X obj 277 340 s bark-kurtosis-display;
#X obj 47 338 s bark-irreg-display;
#X obj 277 510 s bark-spread-display;
#X obj 47 510 s bark-spec-slope-display;
#X obj 797 340 s bark-skewness-display;
#X obj 547 340 s bark-rolloff-display;
#X connect 0 0 27 0;
#X connect 1 0 29 0;
#X connect 2 0 20 0;
#X connect 3 0 21 0;
#X connect 4 0 22 0;
#X connect 5 0 23 0;
#X connect 6 0 24 0;
#X connect 7 0 26 0;
#X connect 8 0 27 0;
#X connect 9 0 29 0;
#X connect 10 0 25 0;
#X connect 11 0 20 0;
#X connect 12 0 21 0;
#X connect 13 0 22 0;
#X connect 14 0 23 0;
#X connect 15 0 26 0;
#X connect 16 0 25 0;
#X connect 17 0 24 0;
#X connect 18 0 28 0;
#X connect 19 0 28 0;
#X connect 20 0 30 0;
#X connect 21 0 31 0;
#X connect 22 0 32 0;
#X connect 23 0 33 0;
#X connect 24 0 34 0;
#X connect 25 0 35 0;
#X connect 26 0 39 0;
#X connect 27 0 38 0;
#X connect 28 0 37 0;
#X connect 29 0 36 0;
#X restore 39 343 pd bark-spectrum-analyses;
#X restore 63 562 pd Bark-spectrum-features;
#N canvas 0 22 450 300 (subpatch) 0;
#X array melspec-graph 38 float 0;
#X coords 0 1 37 0 200 140 1 0 0;
#X restore 753 102 graph;
#N canvas 0 22 450 300 (subpatch) 0;
#X array mfcc-graph 38 float 0;
#X coords 0 1 37 -1 200 140 1 0 0;
#X restore 753 312 graph;
#N canvas 727 93 594 332 sound-event-features 0;
#X obj 113 109 nbx 5 32 -1e+37 1e+37 0 0 empty attack-time-display
empty 0 -8 0 32 -262144 -1 -1 0 256;
#X text 111 89 Attack Time;
#X obj 43 109 bng 32 250 50 0 empty onset-display empty 17 7 0 10 -262144
-1 -1;
#X text 41 89 Onset;
#X obj 323 109 nbx 5 32 -1e+37 1e+37 0 0 empty ceps-pitch-display empty
0 -8 0 32 -262144 -1 -1 -1500 256;
#X text 321 89 Cepstrum pitch;
#X obj 323 179 nbx 5 32 -1e+37 1e+37 0 0 empty sigmund-pitch-display
empty 0 -8 0 32 -262144 -1 -1 0 256;
#X text 321 159 sigmund~ pitch;
#X obj 113 179 nbx 5 32 -1e+37 1e+37 0 0 empty sigmund-env-display
empty 0 -8 0 32 -262144 -1 -1 0 256;
#X text 111 159 sigmund~ env;
#X text 41 39 SOUND EVENT FEATURES:;
#N canvas 519 28 870 423 sound-event-analyses 0;
#X obj 103 39 r~ input-signal;
#X obj 103 157 bark~ 2048;
#X obj 148 255 attackTime~ 2048;
#X obj 103 313 s onset-display;
#X obj 178 80 r lb1;
#X msg 178 110 debounce 500 \, thresh -1 20 \, minvel 10;
#X obj 148 280 s attack-time-display;
#X msg 178 220 onset_samp_mag_thresh 0.0025;
#X obj 178 190 r lb1;
#X obj 533 39 r~ input-signal;
#X obj 533 153 s ceps-pitch-display;
#X obj 533 117 cepstrumPitch~ 2048;
#X obj 563 69 r analysis-tick;
#X obj 533 219 r~ input-signal;
#X obj 533 363 s sigmund-pitch-display;
#X obj 653 333 s sigmund-env-display;
#X obj 533 297 sigmund~ -npts 2048 pitch env;
#X connect 0 0 1 0;
#X connect 0 0 2 0;
#X connect 1 0 2 0;
#X connect 1 0 3 0;
#X connect 2 0 6 0;
#X connect 4 0 5 0;
#X connect 5 0 1 0;
#X connect 7 0 2 0;
#X connect 8 0 7 0;
#X connect 9 0 11 0;
#X connect 11 0 10 0;
#X connect 12 0 11 0;
#X connect 13 0 16 0;
#X connect 16 0 14 0;
#X connect 16 1 15 0;
#X restore 43 269 pd sound-event-analyses;
#X restore 63 592 pd sound-event-features;
#X text 521 477 This patch shows all of the real-time features available
in timbreID. In addition to the multi-dimensional features shown at
this top level \, each subpatch displays the various low-level (single
number) features \, broken down into four categories., f 61;
#N canvas 0 22 450 300 (subpatch) 0;
#X array chroma-graph 12 float 0;
#X coords 0 1 11 0 200 140 1 0 0;
#X restore 293 482 graph;
#X text 62 17 USE WITH timreID Workspace ONLY !!! (the audio routing
is set to work with it...);
#X obj 428 40 switch~;
#X obj 428 19 tgl 15 0 empty empty empty 17 7 0 10 -4034 -66577 -1
0 1;
#X text 449 20 Turn ON/OFF;
#X connect 20 0 19 0;
#X restore 856 207 pd audio-features-realtime;
#X text 854 228 Look at all timbreID analyzers;
#X text 142 874 OFF;
#X text 141 857 timbreID analyzing;
#N canvas 620 40 770 624 read-write-feature-lists 0;
#X obj 36 575 s \$0-feature-list-training;
#X obj 10 10 cnv 15 250 80 empty empty Feature-Lists 5 10 0 12 -233017
-66577 0;
#X floatatom 218 17 5 0 127 0 Preset - -;
#X obj 201 51 bng 15 250 50 0 empty empty empty 17 7 0 10 -204786 -1
-1;
#X obj 201 70 bng 15 250 50 0 empty empty empty 17 7 0 10 -261234 -1
-1;
#X text 285 14 Choose a Feature list \, and read or write it into an
external folder for later use.;
#X text 155 70 WRITE;
#X obj 441 77 loadbang;
#X msg 441 99 0;
#X msg 155 203 set read ./feature-lists-timid/feature_list_\$1.timid
;
#X msg 218 279 set write ./feature-lists-timid/feature_list_\$1.timid
;
#X msg 288 352 set read_text ./feature-lists-txt/feature_list_\$1.txt
;
#X msg 353 442 set write_text ./feature-lists-txt/feature_list_\$1.txt
;
#X obj 235 51 bng 15 250 50 0 empty empty empty 17 7 0 10 -204786 -1
-1;
#X obj 235 70 bng 15 250 50 0 empty empty empty 17 7 0 10 -261234 -1
-1;
#X msg 128 515 write_text ./feature-lists-txt/feature_list_2.txt;
#X obj 155 180 f;
#X obj 218 255 f;
#X obj 288 328 f;
#X obj 353 420 f;
#X obj 128 157 t b b;
#X obj 191 231 t b b;
#X obj 261 306 t b b;
#X text 185 33 .timid;
#X text 227 33 .txt;
#X text 161 52 READ;
#X obj 326 397 t b b;
#X msg 36 334 normalize \$1;
#X obj 15 70 tgl 15 0 empty empty Normalize_Val.(0-1) 17 7 0 10 -191407
-204786 -1 0 1;
#X connect 2 0 16 1;
#X connect 2 0 17 1;
#X connect 2 0 18 1;
#X connect 2 0 19 1;
#X connect 3 0 20 0;
#X connect 4 0 21 0;
#X connect 7 0 8 0;
#X connect 8 0 2 0;
#X connect 9 0 15 0;
#X connect 10 0 15 0;
#X connect 11 0 15 0;
#X connect 12 0 15 0;
#X connect 13 0 22 0;
#X connect 14 0 26 0;
#X connect 15 0 0 0;
#X connect 16 0 9 0;
#X connect 17 0 10 0;
#X connect 18 0 11 0;
#X connect 19 0 12 0;
#X connect 20 0 15 0;
#X connect 20 1 16 0;
#X connect 21 0 15 0;
#X connect 21 1 17 0;
#X connect 22 0 15 0;
#X connect 22 1 18 0;
#X connect 26 0 15 0;
#X connect 26 1 19 0;
#X connect 27 0 0 0;
#X connect 28 0 27 0;
#X coords 0 -1 1 1 250 80 2 10 10;
#X restore 786 561 pd read-write-feature-lists;
#N canvas 0 23 348 246 timbreID 0;
#X obj 32 83 timbreID;
#X obj 32 25 r \$0-feature-list-training;
#X obj 54 51 r \$0-feature-list-analyze;
#X obj 32 159 s \$0-r-timbreID-monitor;
#X obj 77 112 s \$0-r-timbreID-4th-outlet;
#X obj 47 134 s \$0-r-timbreID-nearest-match-dist;
#X connect 0 0 3 0;
#X connect 0 1 5 0;
#X connect 0 3 4 0;
#X connect 1 0 0 0;
#X connect 2 0 0 1;
#X restore 785 650 pd timbreID;
#X obj 169 466 tgl 15 0 empty empty ON/OFF 17 7 0 10 -191407 -204786
-1 0 1;
#X obj 190 504 bng 15 250 50 0 empty empty empty 17 7 0 10 -228856
-258113 -1;
#N canvas 725 25 690 627 specSkewness_1024 0;
#X obj 23 57 inlet~;
#X obj 233 57 inlet;
#X obj 23 417 outlet;
#X text 19 33 Audio IN;
#X text 179 32 Trigger IN;
#X obj 373 57 inlet;
#X text 304 32 On/Off Toggle IN;
#X obj 241 429 outlet;
#X obj 243 79 r \$0-vol-onset-trig;
#X obj 258 101 r \$0-samp-repeat-trig;
#X obj 233 160 spigot 0;
#X obj 272 122 r \$0-midi-clock-trig;
#N canvas 0 23 323 105 audio-signal_L-R 0;
#X obj 11 19 r~ \$0-to-analyzer-l;
#X obj 136 19 r~ \$0-to-analyzer-r;
#X obj 11 40 outlet~;
#X obj 136 40 outlet~;
#X connect 0 0 2 0;
#X connect 1 0 3 0;
#X restore 42 85 pd audio-signal_L-R;
#X obj 23 245 specSkewness~ 2048;
#X connect 0 0 13 0;
#X connect 1 0 10 0;
#X connect 5 0 10 1;
#X connect 8 0 10 0;
#X connect 9 0 10 0;
#X connect 10 0 7 0;
#X connect 10 0 13 0;
#X connect 11 0 10 0;
#X connect 12 0 13 0;
#X connect 13 0 2 0;
#X restore 52 488 pd specSkewness_1024;
#X floatatom 141 511 5 0 0 0 - - -;
#X obj 111 530 hsl 60 8 -1 1 0 0 empty empty -2-2 -2 -8 0 10 -99865
-4034 -1 5495 1;
#X obj 194 556 tgl 15 0 empty empty ON/OFF 17 7 0 10 -191407 -204786
-1 0 1;
#X obj 203 595 bng 15 250 50 0 empty empty empty 17 7 0 10 -228856
-258113 -1;
#X floatatom 154 602 5 0 0 0 - - -;
#X obj 124 621 hsl 60 8 0 1 0 0 empty empty 0-1 -2 -8 0 10 -99865 -4034
-1 5366 1;
#N canvas 725 25 690 627 specBrightness_1024 0;
#X obj 23 57 inlet~;
#X obj 233 57 inlet;
#X obj 23 417 outlet;
#X text 19 33 Audio IN;
#X text 179 32 Trigger IN;
#X obj 373 57 inlet;
#X text 304 32 On/Off Toggle IN;
#X obj 241 429 outlet;
#X obj 243 79 r \$0-vol-onset-trig;
#X obj 258 101 r \$0-samp-repeat-trig;
#X obj 233 160 spigot 0;
#X obj 272 122 r \$0-midi-clock-trig;
#N canvas 0 23 323 105 audio-signal_L-R 0;
#X obj 11 19 r~ \$0-to-analyzer-l;
#X obj 136 19 r~ \$0-to-analyzer-r;
#X obj 11 40 outlet~;
#X obj 136 40 outlet~;
#X connect 0 0 2 0;
#X connect 1 0 3 0;
#X restore 42 85 pd audio-signal_L-R;
#X obj 23 245 specBrightness~ 2048 800;
#X connect 0 0 13 0;
#X connect 1 0 10 0;
#X connect 5 0 10 1;
#X connect 8 0 10 0;
#X connect 9 0 10 0;
#X connect 10 0 7 0;
#X connect 10 0 13 0;
#X connect 11 0 10 0;
#X connect 12 0 13 0;
#X connect 13 0 2 0;
#X restore 65 579 pd specBrightness_1024;
#X connect 1 0 3 0;
#X connect 3 0 4 0;
#X connect 4 0 2 0;
#X connect 7 0 28 0;
#X connect 7 1 23 0;
#X connect 7 2 27 0;
#X connect 8 0 7 1;
#X connect 9 0 7 2;
#X connect 10 0 12 0;
#X connect 10 0 17 0;
#X connect 11 0 10 0;
#X connect 14 0 7 0;
#X connect 14 1 19 0;
#X connect 15 0 14 2;
#X connect 16 0 20 2;
#X connect 20 0 7 0;
#X connect 20 1 18 0;
#X connect 24 0 25 0;
#X connect 25 0 8 0;
#X connect 29 0 28 2;
#X connect 30 0 28 1;
#X connect 46 0 48 2;
#X connect 48 0 49 0;
#X connect 48 0 50 0;
#X connect 48 0 7 0;
#X connect 48 1 47 0;
#X connect 51 0 55 2;
#X connect 55 0 53 0;
#X connect 55 0 54 0;
#X connect 55 0 7 0;
#X connect 55 1 52 0;
