#N canvas 479 38 1117 906 10;
#X declare -lib timbreID/timbreIDLib;
#X obj 119 90 openpanel;
#X msg 119 111 set open \$1;
#X msg 119 151 open amenbreak.wav;
#X msg 227 130 1;
#X msg 257 130 0;
#X obj 227 106 t b b;
#X obj 119 222 readsf~ 2;
#X obj 202 84 route 0 1;
#X obj 119 69 bng 15 250 50 0 empty empty empty 17 7 0 10 -191407 -204786
-1;
#X obj 137 69 tgl 15 0 empty empty empty 17 7 0 10 -191407 -204786
-1 0 1;
#X obj 62 310 *~;
#X obj 77 287 vline~;
#X obj 32 310 *~;
#X obj 149 310 *~;
#X obj 164 287 vline~;
#X obj 119 310 *~;
#X obj 80 269 hsl 60 10 0 1 0 0 empty empty empty -2 -8 0 10 -191407
-1 -1 0 1;
#X obj 167 269 hsl 60 10 0 1 0 0 empty empty empty -2 -8 0 10 -191407
-1 -1 0 1;
#X text 102 52 Soundfile Play;
#X text 31 197 Audio In;
#N canvas 394 134 899 624 cluster 0;
#X msg 21 179 cluster 1;
#X obj 24 529 s \$0-feature-list-training;
#X msg 99 216 uncluster;
#X msg 31 152 set cluster \$1;
#X obj 10 10 cnv 15 250 80 empty empty Cluster 5 10 0 12 -228856 -66577
0;
#X floatatom 16 33 6 1 20 1 Instances - -;
#X obj 16 69 bng 15 250 50 0 empty empty Uncluster 17 7 0 10 -191407
-4034 -1;
#X obj 16 51 bng 15 250 50 0 empty empty Cluster 17 7 0 10 -191407
-4034 -1;
#X text 390 16 Choose a Feature list \, and read or write it into an
external folder for later use.;
#X text 390 47 No overwrite protection!!!;
#X floatatom 218 16 5 0 127 0 Preset - -;
#X obj 201 51 bng 15 250 50 0 empty empty empty 17 7 0 10 -204786 -1
-1;
#X obj 201 70 bng 15 250 50 0 empty empty empty 17 7 0 10 -261234 -1
-1;
#X text 155 70 WRITE;
#X obj 567 78 loadbang;
#X msg 567 100 0;
#X obj 235 51 bng 15 250 50 0 empty empty empty 17 7 0 10 -204786 -1
-1;
#X obj 235 70 bng 15 250 50 0 empty empty empty 17 7 0 10 -261234 -1
-1;
#X msg 313 476 write_clusters_text ./clusters-txt/clusters_0.txt;
#X obj 340 141 f;
#X obj 403 216 f;
#X obj 473 289 f;
#X obj 538 381 f;
#X obj 313 118 t b b;
#X obj 376 192 t b b;
#X obj 446 267 t b b;
#X text 227 33 .txt;
#X text 161 52 READ;
#X text 188 34 .clu;
#X msg 342 165 set read_clusters ./clusters-clu/clusters_\$1.clu;
#X msg 403 240 set write_clusters ./clusters-clu/clusters_\$1.clu;
#X msg 473 312 set read_clusters_text ./clusters-txt/clusters_\$1.txt
;
#X msg 538 403 set write_clusters_text ./clusters-txt/clusters_\$1.txt
;
#X obj 511 358 t b b;
#X connect 0 0 1 0;
#X connect 2 0 1 0;
#X connect 3 0 0 0;
#X connect 5 0 3 0;
#X connect 6 0 2 0;
#X connect 7 0 0 0;
#X connect 10 0 19 1;
#X connect 10 0 20 1;
#X connect 10 0 21 1;
#X connect 10 0 22 1;
#X connect 11 0 23 0;
#X connect 12 0 24 0;
#X connect 14 0 15 0;
#X connect 15 0 10 0;
#X connect 16 0 25 0;
#X connect 17 0 33 0;
#X connect 18 0 1 0;
#X connect 19 0 29 0;
#X connect 20 0 30 0;
#X connect 21 0 31 0;
#X connect 22 0 32 0;
#X connect 23 0 18 0;
#X connect 23 1 19 0;
#X connect 24 0 18 0;
#X connect 24 1 20 0;
#X connect 25 0 18 0;
#X connect 25 1 21 0;
#X connect 29 0 18 0;
#X connect 30 0 18 0;
#X connect 31 0 18 0;
#X connect 32 0 18 0;
#X connect 33 0 18 0;
#X connect 33 1 22 0;
#X coords 0 -1 1 1 250 80 2 10 10;
#X restore 788 588 pd cluster;
#N canvas 999 23 417 168 timbreID-monitor 0;
#X obj 10 10 cnv 15 250 80 empty empty timbreID 5 10 0 12 -228856 -66577
0;
#X obj 16 35 nbx 3 28 -1e+37 1e+37 0 0 \$0-s-timbreID-monitor \$0-r-timbreID-monitor
ID 98 15 0 28 -191407 -1 -1 0 256;
#X msg 224 105 clear;
#X obj 224 128 s \$0-feature-list-training;
#X obj 207 15 bng 15 250 50 0 empty empty CLEAR 17 7 0 10 -261234 -258113
-1;
#X floatatom 16 68 8 0 0 1 - #0-r-timbreID-nearest-match-dist #0-s-timbreID-nearest-match-dist
;
#X text 68 68 Dist. to nearest match;
#X connect 2 0 3 0;
#X connect 4 0 2 0;
#X coords 0 -1 1 1 250 80 1 10 10;
#X restore 788 503 pd timbreID-monitor;
#N canvas 620 40 770 624 read-write-feature-lists 0;
#X obj 36 575 s \$0-feature-list-training;
#X obj 10 10 cnv 15 250 80 empty empty Feature-Lists 5 10 0 12 -233017
-66577 0;
#X floatatom 218 17 5 0 127 0 Preset - -;
#X obj 201 51 bng 15 250 50 0 empty empty empty 17 7 0 10 -204786 -1
-1;
#X obj 201 70 bng 15 250 50 0 empty empty empty 17 7 0 10 -261234 -1
-1;
#X text 285 14 Choose a Feature list \, and read or write it into an
external folder for later use.;
#X text 155 70 WRITE;
#X obj 441 77 loadbang;
#X msg 441 99 0;
#X msg 155 203 set read ./feature-lists-timid/feature_list_\$1.timid
;
#X msg 218 279 set write ./feature-lists-timid/feature_list_\$1.timid
;
#X msg 288 352 set read_text ./feature-lists-txt/feature_list_\$1.txt
;
#X msg 353 442 set write_text ./feature-lists-txt/feature_list_\$1.txt
;
#X obj 235 51 bng 15 250 50 0 empty empty empty 17 7 0 10 -204786 -1
-1;
#X obj 235 70 bng 15 250 50 0 empty empty empty 17 7 0 10 -261234 -1
-1;
#X msg 128 515 write_text ./feature-lists-txt/feature_list_2.txt;
#X obj 155 180 f;
#X obj 218 255 f;
#X obj 288 328 f;
#X obj 353 420 f;
#X obj 128 157 t b b;
#X obj 191 231 t b b;
#X obj 261 306 t b b;
#X text 185 33 .timid;
#X text 227 33 .txt;
#X text 161 52 READ;
#X obj 326 397 t b b;
#X msg 36 334 normalize \$1;
#X obj 15 70 tgl 15 0 empty empty Normalize_Val.(0-1) 17 7 0 10 -191407
-204786 -1 0 1;
#X connect 2 0 16 1;
#X connect 2 0 17 1;
#X connect 2 0 18 1;
#X connect 2 0 19 1;
#X connect 3 0 20 0;
#X connect 4 0 21 0;
#X connect 7 0 8 0;
#X connect 8 0 2 0;
#X connect 9 0 15 0;
#X connect 10 0 15 0;
#X connect 11 0 15 0;
#X connect 12 0 15 0;
#X connect 13 0 22 0;
#X connect 14 0 26 0;
#X connect 15 0 0 0;
#X connect 16 0 9 0;
#X connect 17 0 10 0;
#X connect 18 0 11 0;
#X connect 19 0 12 0;
#X connect 20 0 15 0;
#X connect 20 1 16 0;
#X connect 21 0 15 0;
#X connect 21 1 17 0;
#X connect 22 0 15 0;
#X connect 22 1 18 0;
#X connect 26 0 15 0;
#X connect 26 1 19 0;
#X connect 27 0 0 0;
#X connect 28 0 27 0;
#X coords 0 -1 1 1 250 80 2 10 10;
#X restore 788 673 pd read-write-feature-lists;
#N canvas 0 23 348 246 timbreID 0;
#X obj 32 83 timbreID;
#X obj 32 25 r \$0-feature-list-training;
#X obj 54 51 r \$0-feature-list-analyze;
#X obj 32 159 s \$0-r-timbreID-monitor;
#X obj 77 112 s \$0-r-timbreID-4th-outlet;
#X obj 47 134 s \$0-r-timbreID-nearest-match-dist;
#X connect 0 0 3 0;
#X connect 0 1 5 0;
#X connect 0 3 4 0;
#X connect 1 0 0 0;
#X connect 2 0 0 1;
#X restore 787 762 pd timbreID;
#N canvas 519 489 490 464 training_analysis_print-list 0;
#X obj 27 38 inlet;
#X obj 81 200 s \$0-feature-list-training;
#X obj 253 200 s \$0-feature-list-analyze;
#X obj 81 178 spigot 0;
#X obj 253 178 spigot 0;
#X obj 31 363 spigot 0;
#X obj 31 394 print FEATURE-LIST;
#X obj 157 39 inlet;
#X obj 340 44 inlet;
#X msg 157 91 0, f 1;
#X msg 175 91 1, f 1;
#X msg 197 91 0, f 1;
#X msg 215 91 1, f 1;
#X text 26 13 Feature List in;
#X text 341 16 Print on/off (0-1);
#X text 146 16 To Training or Analyzer (0-1);
#X obj 157 60 sel 0 1 2;
#X msg 237 91 0, f 1;
#X connect 0 0 3 0;
#X connect 0 0 4 0;
#X connect 0 0 5 0;
#X connect 3 0 1 0;
#X connect 4 0 2 0;
#X connect 5 0 6 0;
#X connect 7 0 16 0;
#X connect 8 0 5 1;
#X connect 9 0 4 1;
#X connect 10 0 3 1;
#X connect 11 0 3 1;
#X connect 12 0 4 1;
#X connect 16 0 9 0;
#X connect 16 0 10 0;
#X connect 16 1 11 0;
#X connect 16 1 12 0;
#X connect 16 2 17 0;
#X connect 17 0 4 1;
#X connect 17 0 3 1;
#X restore 30 853 pd training_analysis_print-list;
#X obj 213 831 tgl 15 1 empty empty Print 17 7 0 10 -191407 -204786
-1 1 1;
#X obj 121 793 vradio 15 1 0 3 empty empty empty 0 -8 0 10 -191407
-204786 -1 0;
#X text 138 791 timbreID training;
#X text 139 824 OFF;
#X text 138 807 timbreID analyzing;
#X obj 386 396 bark~ 1024 128 0.5;
#X msg 440 359 mask 4 0.75 \, debounce 100 \, filter_range 0 49 \,
thresh -1 6.5 \, minvel 300;
#X obj 453 322 r \$0-send-bark-settings-to-bark;
#X text 465 341 current bark settings;
#X obj 858 370 bonk~ -npts 1024 -hop 128 -nfilters 11;
#N canvas 0 23 554 192 bark_settings 0;
#N canvas 166 134 1179 454 \$0-bark-settings-generator 0;
#X obj 49 392 outlet;
#X floatatom 17 70 5 0 0 1 Threshold_LO - -;
#X floatatom 17 90 5 0 0 1 Threshold_HI - -;
#X floatatom 155 70 5 0 50 1 Analyzer_Filters_LO - -;
#X floatatom 155 90 5 0 49 1 Analyzer_Filters_HI - -;
#X obj 889 96 bng 15 250 50 0 empty empty empty 17 7 0 10 -262144 -1
-1;
#X obj 889 116 t b b b b b b b b b;
#X msg 1000 145 set;
#X obj 934 85 r \$0-bark-settings;
#X obj 49 347 r \$0-bark-settings-list;
#X obj 1000 170 s \$0-bark-settings-list;
#X msg 131 374 mask 4 0.75 \, debounce 100 \, filter_range 0 49 \,
thresh -1 6.5 \, minvel 300;
#X obj 919 203 s \$0-send-bark-settings-to-bark;
#N canvas 0 23 545 411 \$0-bark-threshold 0;
#X obj 172 81 inlet;
#X obj 212 81 inlet;
#X obj 75 81 inlet;
#X msg 173 267 add2 thresh -1 6.5;
#X obj 171 171 pack f f;
#X obj 171 192 t b l;
#X msg 198 222 set add2 thresh \$1 \$2;
#X obj 132 239 t b b;
#X msg 132 290 addcomma;
#X obj 211 121 t b b f;
#X obj 171 121 t b f;
#X obj 233 170 s \$0-bark-settings;
#X obj 132 320 s \$0-bark-settings-list;
#X connect 0 0 10 0;
#X connect 1 0 9 0;
#X connect 2 0 7 0;
#X connect 3 0 12 0;
#X connect 4 0 5 0;
#X connect 5 0 3 0;
#X connect 5 1 6 0;
#X connect 6 0 3 0;
#X connect 7 0 8 0;
#X connect 7 1 3 0;
#X connect 8 0 12 0;
#X connect 9 0 11 0;
#X connect 9 1 4 0;
#X connect 9 2 4 1;
#X connect 10 0 11 0;
#X connect 10 1 4 0;
#X restore 225 266 pd \$0-bark-threshold;
#N canvas 0 23 545 411 \$0-bark-analyzer-filter 0;
#X obj 172 81 inlet;
#X obj 212 81 inlet;
#X obj 75 81 inlet;
#X msg 173 267 add2 filter_range 0 49;
#X obj 171 171 pack f f;
#X obj 171 192 t b l;
#X obj 132 239 t b b;
#X msg 132 290 addcomma;
#X obj 211 121 t b b f;
#X obj 171 121 t b f;
#X obj 233 170 s \$0-bark-settings;
#X obj 132 320 s \$0-bark-settings-list;
#X msg 198 222 set add2 filter_range \$1 \$2;
#X connect 0 0 9 0;
#X connect 1 0 8 0;
#X connect 2 0 6 0;
#X connect 3 0 11 0;
#X connect 4 0 5 0;
#X connect 5 0 3 0;
#X connect 5 1 12 0;
#X connect 6 0 7 0;
#X connect 6 1 3 0;
#X connect 7 0 11 0;
#X connect 8 0 10 0;
#X connect 8 1 4 0;
#X connect 8 2 4 1;
#X connect 9 0 10 0;
#X connect 9 1 4 0;
#X connect 12 0 3 0;
#X restore 400 267 pd \$0-bark-analyzer-filter;
#X floatatom 155 39 5 0 2000 1 Debounce_(in_ms) - -;
#N canvas 0 23 545 411 \$0-bark-debounce 0;
#X obj 171 86 inlet;
#X obj 75 81 inlet;
#X msg 173 267 add2 debounce 100;
#X obj 171 171 pack f f;
#X obj 171 192 t b l;
#X obj 132 239 t b b;
#X msg 132 290 addcomma;
#X obj 171 121 t b f;
#X obj 233 170 s \$0-bark-settings;
#X obj 132 320 s \$0-bark-settings-list;
#X msg 198 222 set add2 debounce \$1;
#X connect 0 0 7 0;
#X connect 1 0 5 0;
#X connect 2 0 9 0;
#X connect 3 0 4 0;
#X connect 4 0 2 0;
#X connect 4 1 10 0;
#X connect 5 0 6 0;
#X connect 5 1 2 0;
#X connect 6 0 9 0;
#X connect 7 0 8 0;
#X connect 7 1 3 0;
#X connect 10 0 2 0;
#X restore 606 271 pd \$0-bark-debounce;
#X floatatom 16 39 5 0 2000 1 Minimal_Velocity - -;
#N canvas 0 23 545 411 \$0-bark-minvel 0;
#X obj 171 86 inlet;
#X obj 75 81 inlet;
#X msg 173 267 add2 minvel 300;
#X obj 171 171 pack f f;
#X obj 171 192 t b l;
#X obj 132 239 t b b;
#X msg 132 290 addcomma;
#X obj 171 121 t b f;
#X obj 233 170 s \$0-bark-settings;
#X obj 132 320 s \$0-bark-settings-list;
#X msg 198 222 set add2 minvel \$1;
#X text 7 265 no adcomm for last value;
#X connect 0 0 7 0;
#X connect 1 0 5 0;
#X connect 2 0 9 0;
#X connect 3 0 4 0;
#X connect 4 0 2 0;
#X connect 4 1 10 0;
#X connect 5 1 2 0;
#X connect 6 0 9 0;
#X connect 7 0 8 0;
#X connect 7 1 3 0;
#X connect 10 0 2 0;
#X restore 50 267 pd \$0-bark-minvel;
#X floatatom 318 70 5 1 20 1 Mask_(analysis_cycles) - -;
#X floatatom 318 90 5 0 1 1 Mask_(decay_rate_0-1) - -;
#N canvas 0 23 545 411 \$0-bark-mask 0;
#X obj 172 81 inlet;
#X obj 212 81 inlet;
#X obj 75 81 inlet;
#X msg 173 267 add2 mask 4 0.75;
#X obj 171 171 pack f f;
#X obj 171 192 t b l;
#X obj 132 239 t b b;
#X msg 132 290 addcomma;
#X obj 211 121 t b b f;
#X obj 171 121 t b f;
#X obj 233 170 s \$0-bark-settings;
#X obj 132 320 s \$0-bark-settings-list;
#X msg 198 222 set add2 mask \$1 \$2;
#X connect 0 0 9 0;
#X connect 1 0 8 0;
#X connect 2 0 6 0;
#X connect 3 0 11 0;
#X connect 4 0 5 0;
#X connect 5 0 3 0;
#X connect 5 1 12 0;
#X connect 6 0 7 0;
#X connect 6 1 3 0;
#X connect 7 0 11 0;
#X connect 8 0 10 0;
#X connect 8 1 4 0;
#X connect 8 2 4 1;
#X connect 9 0 10 0;
#X connect 9 1 4 0;
#X connect 12 0 3 0;
#X restore 761 274 pd \$0-bark-mask;
#X obj 632 5 loadbang;
#X msg 640 57 -1;
#X msg 633 82 6.5;
#X msg 690 56 0;
#X msg 682 79 49;
#X msg 740 55 4;
#X msg 732 78 0.75;
#X text 738 19 INITIAL VALUES;
#X text 19 14 bark~ settings;
#X msg 662 26 100;
#X msg 633 28 300;
#X connect 1 0 13 1;
#X connect 2 0 13 2;
#X connect 3 0 14 1;
#X connect 4 0 14 2;
#X connect 5 0 6 0;
#X connect 6 0 12 0;
#X connect 6 3 18 0;
#X connect 6 4 13 0;
#X connect 6 5 14 0;
#X connect 6 6 16 0;
#X connect 6 7 21 0;
#X connect 6 8 7 0;
#X connect 7 0 10 0;
#X connect 8 0 6 0;
#X connect 9 0 11 0;
#X connect 9 0 0 0;
#X connect 15 0 16 1;
#X connect 17 0 18 1;
#X connect 19 0 21 1;
#X connect 20 0 21 2;
#X connect 22 0 32 0;
#X connect 22 0 31 0;
#X connect 22 0 23 0;
#X connect 22 0 24 0;
#X connect 22 0 25 0;
#X connect 22 0 26 0;
#X connect 22 0 27 0;
#X connect 22 0 28 0;
#X connect 23 0 1 0;
#X connect 24 0 2 0;
#X connect 25 0 3 0;
#X connect 26 0 4 0;
#X connect 27 0 19 0;
#X connect 28 0 20 0;
#X connect 31 0 15 0;
#X connect 32 0 17 0;
#X coords 0 -1 1 1 500 100 2 10 10;
#X restore 20 36 pd \$0-bark-settings-generator;
#X text 18 16 EDIT Envelope Peak Detection Parameter here:;
#X obj 20 141 outlet;
#X connect 0 0 2 0;
#X restore 440 296 pd bark_settings;
#N canvas 544 251 770 549 feature-list-builder 0;
#X obj 187 194 list prepend;
#X obj 220 220 t l;
#X obj 187 354 spigot 0;
#X obj 187 375 t l b;
#X msg 254 327 1, f 1;
#X msg 274 327 0, f 1;
#X obj 54 208 f;
#X obj 54 296 mod;
#X obj 93 208 + 1;
#X obj 54 330 select;
#X obj 87 307 - 1;
#X msg 69 178 0, f 2;
#X obj 27 130 t l b;
#X obj 27 13 inlet;
#X obj 187 462 outlet;
#X obj 398 52 bang;
#X obj 199 12 inlet;
#X obj 398 19 inlet;
#X obj 124 253 loadbang;
#X msg 124 274 1;
#X text 188 484 Compiled Features Lists OUTLET;
#X text 244 13 HOW MANY FEATURE LISTS;
#X text 440 16 RESET;
#X text 66 13 FEATURE LISTS INPUT;
#X obj 397 461 outlet;
#X text 399 486 DONE monitor Out;
#X obj 397 438 bang;
#X obj 540 432 + 1;
#X obj 540 453 outlet;
#X text 534 483 Counter Monitor;
#X connect 0 0 1 0;
#X connect 0 0 2 0;
#X connect 1 0 0 1;
#X connect 2 0 3 0;
#X connect 3 0 14 0;
#X connect 3 0 26 0;
#X connect 3 1 5 0;
#X connect 3 1 0 1;
#X connect 4 0 2 1;
#X connect 5 0 2 1;
#X connect 6 0 7 0;
#X connect 6 0 8 0;
#X connect 7 0 9 0;
#X connect 7 0 27 0;
#X connect 8 0 6 1;
#X connect 9 0 11 0;
#X connect 9 0 4 0;
#X connect 10 0 9 1;
#X connect 11 0 6 1;
#X connect 12 0 0 0;
#X connect 12 1 6 0;
#X connect 13 0 12 0;
#X connect 15 0 0 1;
#X connect 15 0 11 0;
#X connect 16 0 10 0;
#X connect 16 0 7 1;
#X connect 16 0 11 0;
#X connect 17 0 15 0;
#X connect 18 0 19 0;
#X connect 19 0 10 0;
#X connect 19 0 7 1;
#X connect 26 0 24 0;
#X connect 27 0 28 0;
#X restore 30 746 pd feature-list-builder;
#X floatatom 181 713 5 1 20 1 How_many_Features_per_List - -;
#X obj 181 731 bng 15 250 50 0 empty empty RESET 17 7 0 10 -228856
-4034 -1;
#X obj 181 762 bng 15 250 50 0 empty empty empty 17 7 0 10 -228856
-258113 -1;
#X obj 247 664 loadbang;
#X msg 247 685 1;
#X floatatom 196 762 5 0 0 0 - - -;
#X obj 854 18 declare -lib timbreID/timbreIDLib;
#X obj 854 41 loadbang;
#X msg 854 104 \; pd dsp \$1 \;;
#X msg 854 62 1;
#X obj 854 83 tgl 15 0 empty empty empty 17 7 0 10 -191407 -4034 -1
1 1;
#X obj 944 64 samplerate~;
#X obj 944 41 r pd-dsp-started;
#X floatatom 944 115 8 0 0 0 - - -;
#X obj 964 85 s \$0-sample-rate;
#X obj 21 13 cnv 15 200 30 empty empty empty 20 12 0 14 -228856 -66577
0;
#X obj 26 18 cnv 15 190 20 empty empty empty 20 12 0 14 -191407 -66577
0;
#X text 38 21 timbreID Minimal Workspace;
#N canvas 408 50 690 405 single_feature_template 0;
#X obj 23 37 inlet~;
#X obj 113 37 inlet;
#X obj 23 297 outlet;
#X text 19 13 Audio IN;
#X text 109 12 Trigger IN;
#X obj 386 184 list split 5;
#X obj 386 205 list split 1;
#X text 470 181 Spit out only 5 first items of list;
#X text 468 204 Truncate first item of list;
#X msg 420 229 list out;
#X msg 386 153 list in;
#X text 388 123 Use this to truncate the list;
#X obj 228 34 inlet;
#X obj 322 305 outlet;
#X text 367 308 Control Blink out;
#X text 20 321 Feature List/Value Output;
#X text 229 9 On/Off Toggle IN (0/1);
#X obj 113 58 spigot 0;
#X obj 23 125 PUT FEATURE ANALYZER HERE;
#X connect 0 0 18 0;
#X connect 1 0 17 0;
#X connect 5 0 6 0;
#X connect 6 1 9 0;
#X connect 10 0 5 0;
#X connect 12 0 17 1;
#X connect 17 0 13 0;
#X connect 17 0 18 0;
#X connect 18 0 2 0;
#X restore 30 498 pd single_feature_template;
#N canvas 565 152 805 515 multiple_features_template 0;
#X obj 19 45 inlet~;
#X text 18 19 Audio IN;
#X obj 19 367 list append;
#X obj 82 329 list append;
#X obj 159 45 inlet;
#X obj 159 89 t b b b b b b;
#X obj 19 405 outlet;
#X obj 486 257 list split 5;
#X obj 486 278 list split 1;
#X text 570 254 Spit out only 5 first items of list;
#X text 568 277 Truncate first item of list;
#X msg 520 302 list out;
#X msg 486 226 list in;
#X text 488 196 Use this to truncate the list;
#X obj 292 37 inlet;
#X text 156 17 Trigger IN;
#X obj 479 405 outlet;
#X text 527 405 Control Blink Out;
#X text 286 15 On/Off Toggle IN (0/1);
#X text 16 428 Feature List OUTPUT;
#X obj 159 66 spigot 0;
#X obj 20 171 FEATURE ANALYZER 1;
#X obj 147 172 FEATURE ANAÖYZER 2;
#X obj 280 173 FEATURE ALANYZER;
#X connect 0 0 21 0;
#X connect 0 0 22 0;
#X connect 0 0 23 0;
#X connect 2 0 6 0;
#X connect 3 0 2 1;
#X connect 4 0 20 0;
#X connect 5 0 21 0;
#X connect 5 1 22 0;
#X connect 5 2 23 0;
#X connect 7 0 8 0;
#X connect 8 1 11 0;
#X connect 12 0 7 0;
#X connect 14 0 20 1;
#X connect 20 0 5 0;
#X connect 20 0 16 0;
#X connect 21 0 2 0;
#X connect 22 0 3 0;
#X connect 23 0 3 1;
#X restore 281 501 pd multiple_features_template;
#X obj 183 475 tgl 15 0 empty empty ON/OFF 17 7 0 10 -191407 -4034
-1 0 1;
#X obj 452 477 tgl 15 0 empty empty ON/OFF 17 7 0 10 -191407 -4034
-1 0 1;
#X obj 183 521 bng 15 250 50 0 empty empty empty 17 7 0 10 -228856
-258113 -1;
#X obj 452 524 bng 15 250 50 0 empty empty empty 17 7 0 10 -228856
-258113 -1;
#X obj 32 221 adc~ 1 2;
#X obj 257 292 dac~ 1 2;
#X obj 287 268 *~;
#X obj 302 245 vline~;
#X obj 257 268 *~;
#X obj 305 227 hsl 60 10 0 1 0 0 empty empty empty -2 -8 0 10 -191407
-1 -1 0 1;
#X text 260 202 Audio Out;
#X text 155 68 Start/Stop;
#X text 84 69 Open;
#X obj 504 412 bng 15 250 50 0 empty empty empty 17 7 0 10 -228856
-258113 -1;
#X text 514 392 Onset Detector;
#X text 859 347 Alternative Onset Detector;
#X connect 0 0 1 0;
#X connect 1 0 2 0;
#X connect 2 0 6 0;
#X connect 3 0 6 0;
#X connect 4 0 6 0;
#X connect 5 0 3 0;
#X connect 5 1 2 0;
#X connect 6 0 15 0;
#X connect 6 0 65 0;
#X connect 6 1 13 0;
#X connect 6 1 63 0;
#X connect 6 2 5 0;
#X connect 7 0 4 0;
#X connect 7 1 5 0;
#X connect 8 0 0 0;
#X connect 9 0 7 0;
#X connect 11 0 10 1;
#X connect 11 0 12 1;
#X connect 12 0 30 0;
#X connect 12 0 55 0;
#X connect 12 0 56 0;
#X connect 14 0 13 1;
#X connect 14 0 15 1;
#X connect 15 0 30 0;
#X connect 16 0 11 0;
#X connect 17 0 14 0;
#X connect 25 0 24 2;
#X connect 26 0 24 1;
#X connect 30 0 70 0;
#X connect 30 0 55 1;
#X connect 30 1 56 1;
#X connect 31 0 30 0;
#X connect 32 0 31 0;
#X connect 35 0 31 0;
#X connect 36 0 24 0;
#X connect 36 1 39 0;
#X connect 36 2 42 0;
#X connect 37 0 36 1;
#X connect 38 0 36 2;
#X connect 40 0 41 0;
#X connect 41 0 37 0;
#X connect 44 0 46 0;
#X connect 46 0 47 0;
#X connect 47 0 45 0;
#X connect 48 0 50 0;
#X connect 48 0 51 0;
#X connect 49 0 48 0;
#X connect 55 0 36 0;
#X connect 55 1 59 0;
#X connect 56 0 36 0;
#X connect 56 1 60 0;
#X connect 57 0 55 2;
#X connect 58 0 56 2;
#X connect 61 0 12 0;
#X connect 61 0 65 0;
#X connect 61 1 10 0;
#X connect 61 1 63 0;
#X connect 63 0 62 1;
#X connect 64 0 63 1;
#X connect 64 0 65 1;
#X connect 65 0 62 0;
#X connect 66 0 64 0;
